M48
INCH
T1C0.0080
T2C0.0100
T3C0.0120
T4C0.0150
T5C0.0200
T6C0.0236
T7C0.0250
T8C0.0276
T9C0.0350
T10C0.0400
T11C0.0433
T12C0.0500
T13C0.0610
T14C0.0800
T15C0.0984
T16C0.1024
T17C0.1654
%
G90
G05
T1
X4.275Y-1.275
X4.305Y-1.25
X4.5624Y-1.43
X4.57Y-1.305
X5.62Y-0.65
X5.62Y-0.68
X6.014Y-3.042
T2
X3.76Y-0.85
X3.855Y-2.115
X3.87Y-1.835
X3.905Y-4.28
X3.92Y-0.955
X3.935Y-0.545
X3.935Y-1.59
X3.95Y-1.305
X3.9579Y-2.29
X3.958Y-1.223
X3.9613Y-2.9187
X3.962Y-3.586
X3.965Y-1.1
X3.965Y-2.785
X3.97Y-2.37
X3.98Y-1.17
X3.98Y-2.1
X3.98Y-2.26
X3.985Y-1.284
X3.985Y-3.26
X3.9945Y-1.2198
X3.995Y-3.665
X4.0Y-2.303
X4.0Y-3.195
X4.005Y-1.355
X4.01Y-3.435
X4.015Y-1.395
X4.025Y-2.225
X4.026Y-3.906
X4.03Y-2.122
X4.03Y-3.005
X4.032Y-0.654
X4.035Y-0.707
X4.035Y-1.3
X4.035Y-3.25
X4.04Y-1.15
X4.04Y-3.765
X4.0432Y-1.0058
X4.044Y-0.568
X4.05Y-3.28
X4.06Y-1.83
X4.07Y-2.122
X4.07Y-3.25
X4.07Y-3.555
X4.07Y-3.665
X4.072Y-3.62
X4.08Y-3.373
X4.105Y-1.015
X4.105Y-1.615
X4.105Y-3.255
X4.108Y-3.538
X4.11Y-2.225
X4.115Y-3.77
X4.125Y-3.61
X4.14Y-1.55
X4.14Y-3.25
X4.143Y-0.72
X4.143Y-0.853
X4.16Y-1.445
X4.165Y-3.005
X4.18Y-2.095
X4.185Y-0.76
X4.185Y-3.74
X4.195Y-3.14
X4.2Y-2.67
X4.201Y-0.904
X4.205Y-1.83
X4.205Y-2.305
X4.2075Y-3.1925
X4.21Y-1.585
X4.21Y-3.89
X4.213Y-1.314
X4.222Y-0.515
X4.222Y-0.565
X4.222Y-0.615
X4.222Y-0.665
X4.225Y-1.51
X4.23Y-1.55
X4.235Y-1.265
X4.24Y-2.515
X4.24Y-3.675
X4.25Y-1.31
X4.25Y-2.305
X4.2552Y-1.6094
X4.2585Y-2.46
X4.26Y-2.795
X4.265Y-2.045
X4.265Y-3.145
X4.27Y-3.55
X4.28Y-1.46
X4.28Y-3.655
X4.285Y-1.31
X4.295Y-1.215
X4.3052Y-1.4894
X4.316Y-1.712
X4.33Y-3.655
X4.335Y-2.67
X4.34Y-1.25
X4.344Y-4.01
X4.352Y-1.106
X4.352Y-1.488
X4.352Y-3.559
X4.355Y-1.745
X4.365Y-3.01
X4.375Y-1.87
X4.375Y-3.66
X4.385Y-1.77
X4.385Y-2.045
X4.39Y-1.38
X4.39Y-2.36
X4.3919Y-3.6119
X4.395Y-2.795
X4.395Y-3.28
X4.404Y-1.442
X4.425Y-3.15
X4.43Y-2.265
X4.435Y-3.855
X4.44Y-2.505
X4.464Y-1.154
X4.465Y-1.395
X4.465Y-1.43
X4.465Y-3.35
X4.47Y-2.67
X4.48Y-3.42
X4.482Y-3.529
X4.485Y-3.015
X4.5Y-2.3
X4.5025Y-1.5425
X4.51Y-1.58
X4.515Y-3.295
X4.53Y-4.496
X4.535Y-1.5
X4.535Y-2.795
X4.535Y-4.545
X4.545Y-2.505
X4.55Y-2.335
X4.555Y-1.595
X4.555Y-2.02
X4.56Y-1.11
X4.56Y-1.53
X4.57Y-4.465
X4.575Y-1.88
X4.575Y-3.015
X4.582Y-3.376
X4.585Y-1.338
X4.585Y-1.379
X4.585Y-3.335
X4.59Y-1.265
X4.59Y-3.095
X4.595Y-1.115
X4.6Y-2.67
X4.605Y-1.59
X4.605Y-2.105
X4.63Y-1.126
X4.633Y-2.22
X4.645Y-1.57
X4.65Y-2.97
X4.6624Y-1.1284
X4.67Y-1.595
X4.675Y-2.23
X4.68Y-3.635
X4.685Y-3.435
X4.69Y-2.555
X4.6913Y-1.0887
X4.694Y-1.244
X4.705Y-1.83
X4.71Y-2.33
X4.715Y-1.98
X4.72Y-2.11
X4.72Y-2.235
X4.72Y-3.02
X4.73Y-1.09
X4.73Y-1.255
X4.74Y-2.96
X4.745Y-2.36
X4.75Y-1.285
X4.755Y-1.325
X4.755Y-2.11
X4.755Y-2.23
X4.755Y-2.805
X4.755Y-3.355
X4.7623Y-3.5123
X4.765Y-1.09
X4.768Y-0.593
X4.77Y-2.565
X4.773Y-0.643
X4.775Y-0.8
X4.775Y-0.85
X4.7855Y-3.145
X4.79Y-0.885
X4.79Y-1.87
X4.79Y-1.99
X4.795Y-1.165
X4.795Y-1.775
X4.8Y-1.1
X4.8Y-1.5
X4.8Y-1.93
X4.8Y-3.5
X4.805Y-2.095
X4.805Y-3.015
X4.81Y-3.426
X4.82Y-1.595
X4.82Y-3.145
X4.83Y-0.87
X4.83Y-1.08
X4.83Y-1.175
X4.835Y-1.9
X4.835Y-2.065
X4.835Y-3.265
X4.84Y-2.565
X4.845Y-2.345
X4.845Y-3.415
X4.855Y-1.625
X4.855Y-1.7825
X4.855Y-2.48
X4.86Y-1.465
X4.865Y-2.83
X4.8651Y-1.1999
X4.88Y-0.86
X4.885Y-5.18
X4.899Y-1.209
X4.9Y-0.595
X4.9Y-2.775
X4.91Y-1.465
X4.91Y-1.5
X4.91Y-3.445
X4.91Y-3.485
X4.915Y-2.0
X4.925Y-0.68
X4.926Y-1.232
X4.93Y-0.84
X4.9305Y-0.805
X4.95Y-3.245
X4.955Y-3.45
X4.97Y-2.81
X4.97Y-2.96
X4.975Y-1.81
X4.9808Y-3.22
X4.99Y-3.4475
X4.995Y-2.47
X5.0Y-0.78
X5.0Y-2.07
X5.0Y-2.305
X5.0Y-2.525
X5.0Y-2.625
X5.0Y-2.71
X5.03Y-2.09
X5.04Y-2.325
X5.04Y-3.3998
X5.0456Y-3.2848
X5.055Y-0.659
X5.075Y-2.89
X5.08Y-0.77
X5.08Y-2.33
X5.08Y-2.475
X5.08Y-2.525
X5.0832Y-0.8418
X5.085Y-0.81
X5.085Y-1.415
X5.086Y-0.619
X5.09Y-2.73
X5.095Y-0.695
X5.095Y-2.415
X5.11Y-1.385
X5.11Y-3.09
X5.125Y-0.8512
X5.125Y-1.54
X5.13Y-0.57
X5.1323Y-3.324
X5.135Y-1.35
X5.145Y-2.22
X5.155Y-3.085
X5.16Y-1.44
X5.16Y-2.47
X5.165Y-1.775
X5.1686Y-3.0396
X5.17Y-1.495
X5.175Y-2.655
X5.18Y-2.81
X5.185Y-2.74
X5.195Y-3.26
X5.202Y-2.868
X5.2195Y-2.9945
X5.225Y-1.313
X5.23Y-1.555
X5.26Y-0.87
X5.285Y-0.595
X5.29Y-0.8
X5.3Y-1.68
X5.305Y-2.285
X5.314Y-2.086
X5.328Y-1.47
X5.331Y-2.55
X5.35Y-2.97
X5.356Y-0.589
X5.36Y-2.24
X5.36Y-3.185
X5.367Y-2.078
X5.375Y-1.425
X5.38Y-1.12
X5.38Y-1.82
X5.38Y-3.005
X5.3805Y-2.94
X5.39Y-0.885
X5.395Y-2.38
X5.4Y-2.095
X5.405Y-1.455
X5.405Y-1.685
X5.405Y-2.755
X5.41Y-2.025
X5.414Y-2.97
X5.415Y-1.54
X5.425Y-2.4
X5.425Y-2.435
X5.43Y-2.08
X5.435Y-1.955
X5.435Y-2.47
X5.435Y-2.63
X5.435Y-2.67
X5.438Y-0.66
X5.44Y-1.885
X5.45Y-0.695
X5.462Y-2.946
X5.47Y-2.02
X5.47Y-2.99
X5.475Y-1.145
X5.495Y-2.07
X5.498Y-2.768
X5.515Y-0.8
X5.515Y-3.185
X5.525Y-0.625
X5.56Y-0.8
X5.562Y-2.666
X5.565Y-3.095
X5.568Y-2.628
X5.575Y-0.625
X5.58Y-1.15
X5.585Y-2.07
X5.59Y-2.51
X5.595Y-0.885
X5.6Y-1.57
X5.6Y-2.62
X5.605Y-2.98
X5.61Y-0.8
X5.615Y-2.295
X5.617Y-0.757
X5.62Y-0.615
X5.62Y-0.715
X5.625Y-1.615
X5.625Y-1.925
X5.63Y-1.78
X5.63Y-1.855
X5.635Y-1.715
X5.635Y-2.225
X5.638Y-2.728
X5.64Y-1.655
X5.645Y-3.11
X5.655Y-1.35
X5.66Y-2.385
X5.665Y-2.575
X5.672Y-2.876
X5.675Y-2.835
X5.6765Y-2.7715
X5.68Y-0.865
X5.685Y-0.54
X5.695Y-0.59
X5.7Y-3.115
X5.705Y-1.17
X5.705Y-2.61
X5.715Y-0.885
X5.72Y-2.69
X5.725Y-2.225
X5.73Y-2.18
X5.735Y-2.375
X5.735Y-2.975
X5.75Y-0.865
X5.75Y-1.525
X5.755Y-1.35
X5.755Y-1.83
X5.755Y-2.145
X5.758Y-1.288
X5.765Y-0.825
X5.765Y-2.84
X5.77Y-2.74
X5.775Y-0.7
X5.78Y-2.1
X5.785Y-1.595
X5.785Y-1.64
X5.795Y-2.51
X5.8Y-0.654
X5.815Y-2.085
X5.82Y-1.195
X5.82Y-2.985
X5.835Y-2.51
X5.84Y-2.47
X5.845Y-1.32
X5.865Y-2.09
X5.865Y-2.315
X5.87Y-1.505
X5.88Y-0.77
X5.89Y-1.7
X5.895Y-1.535
X5.895Y-2.625
X5.9Y-1.415
X5.9Y-2.425
X5.9Y-2.58
X5.901Y-2.775
X5.905Y-1.86
X5.905Y-2.07
X5.908Y-2.106
X5.92Y-0.75
X5.935Y-1.655
X5.945Y-2.255
X5.965Y-0.745
X5.98Y-2.21
X5.985Y-1.36
X5.985Y-1.58
X5.995Y-0.555
X5.995Y-0.65
X6.012Y-2.168
X6.016Y-3.564
X6.03Y-2.445
X6.03Y-2.59
X6.03Y-2.745
X6.03Y-2.895
X6.034Y-3.384
X6.035Y-1.5
X6.036Y-3.214
X6.047Y-1.367
X6.065Y-1.285
X6.08Y-2.993
X6.1Y-2.145
X6.12Y-1.98
X6.13Y-1.31
X6.13Y-1.355
X6.135Y-1.86
X6.15Y-1.44
X6.17Y-1.145
X6.195Y-1.185
T3
X4.06Y-2.98
X4.2Y-2.98
X4.335Y-2.98
X4.47Y-2.98
X4.605Y-2.98
X4.635Y-3.055
X4.705Y-2.985
X4.73Y-2.535
X4.73Y-2.625
X6.07Y-2.275
T4
X4.38Y-3.785
X4.39Y-3.83
X4.425Y-3.8
X4.69Y-1.15
T5
X4.27Y-4.355
X4.285Y-4.445
X4.305Y-4.065
X4.37Y-4.47
X4.39Y-4.345
X4.525Y-4.625
X4.875Y-5.015
X4.93Y-5.08
X5.25Y-2.57
X5.285Y-2.535
T7
X4.484Y-2.022
T8
X4.8736Y-4.8835
X4.9254Y-4.6903
T9
X4.34Y-0.73
X4.44Y-0.73
T10
X3.88Y-0.6211
X3.88Y-0.8789
X4.05Y-1.45
X4.05Y-1.55
X4.24Y-0.73
X4.54Y-0.73
X4.6424Y-4.0781
X4.8476Y-4.6419
X4.9374Y-4.2481
X4.9922Y-5.1829
X4.995Y-1.495
X5.0078Y-4.9771
X5.085Y-1.495
X5.1426Y-4.8119
X5.1524Y-4.2081
X5.1689Y-5.137
X5.2311Y-4.923
X5.325Y-1.2
X5.325Y-1.3
X5.3576Y-4.7719
X5.3889Y-5.092
X5.425Y-1.2
X5.425Y-1.3
X5.4511Y-4.878
X5.4738Y-4.3612
X5.4762Y-4.0188
X5.525Y-1.2
X5.525Y-1.3
X5.525Y-1.4
X5.525Y-1.5
X5.525Y-1.6
X5.5874Y-3.8393
X5.615Y-3.392
X5.625Y-1.5
X5.6581Y-4.9239
X5.7219Y-4.5461
X5.8826Y-4.3507
X6.115Y-4.258
X6.2492Y-0.755
X6.2492Y-0.855
X6.2492Y-0.955
X6.2492Y-1.055
X6.2492Y-1.155
X6.2492Y-1.255
X6.2492Y-1.355
X6.2492Y-1.455
X6.2492Y-1.555
T11
X3.7967Y-1.7414
X3.7967Y-1.9186
X4.0526Y-1.7414
X4.0526Y-1.9186
X4.2298Y-1.7414
X4.2298Y-1.9186
X4.4857Y-1.7414
X4.4857Y-1.9186
X4.6628Y-1.7414
X4.6628Y-1.9186
X4.9187Y-1.7414
X4.9187Y-1.9186
X5.0959Y-1.7414
X5.0959Y-1.9186
X5.3518Y-1.7414
X5.3518Y-1.9186
X5.529Y-1.7414
X5.529Y-1.9186
X5.7849Y-1.7414
X5.7849Y-1.9186
X5.962Y-1.7414
X5.962Y-1.9186
X6.218Y-1.7414
X6.218Y-1.9186
T12
X5.0Y-5.31
X5.0Y-5.91
T13
X4.5817Y-3.4879
X4.5817Y-3.7121
X4.6938Y-3.9062
X4.6938Y-3.2938
X4.8479Y-3.5592
X4.8879Y-4.0183
X4.8879Y-3.1817
X5.1121Y-4.0183
X5.1121Y-3.1817
X5.1521Y-3.6408
X5.3062Y-3.9062
X5.3062Y-3.2938
X5.4183Y-3.4879
X5.4183Y-3.7121
T14
X3.8392Y-5.7477
X4.0274Y-4.0437
X4.1211Y-5.8503
X4.1542Y-4.3156
X4.45Y-4.95
X4.5768Y-5.2219
X4.7789Y-6.0897
X5.0608Y-6.1923
T15
X3.785Y-1.593
X6.108Y-1.593
T16
X3.785Y-0.727
T17
X4.0106Y-5.1698
X4.625Y-5.6
X5.375Y-5.6
X5.9894Y-5.1698
T6
G00X3.7172Y-1.0449
M15
G01X3.6857Y-1.0449
M16
G05
G00X3.7172Y-1.3851
M15
G01X3.6857Y-1.3851
M16
G05
G00X3.8877Y-1.0449
M15
G01X3.8444Y-1.0449
M16
G05
G00X3.8877Y-1.3851
M15
G01X3.8444Y-1.3851
M16
G05
G00X4.68Y-0.5772
M15
G01X4.68Y-0.5457
M16
G05
G00X4.68Y-0.7477
M15
G01X4.68Y-0.7044
M16
G05
G00X5.0202Y-0.5772
M15
G01X5.0202Y-0.5457
M16
G05
G00X5.0202Y-0.7477
M15
G01X5.0202Y-0.7044
M16
G05
M30
