%TF.GenerationSoftware,KiCad,Pcbnew,10.0.2*%
%TF.CreationDate,2026-05-25T00:31:11-07:00*%
%TF.ProjectId,LCMTR_01_01,4c434d54-525f-4303-915f-30312e6b6963,rev?*%
%TF.SameCoordinates,Original*%
%TF.FileFunction,Profile,NP*%
%FSLAX46Y46*%
G04 Gerber Fmt 4.6, Leading zero omitted, Abs format (unit mm)*
G04 Created by KiCad (PCBNEW 10.0.2) date 2026-05-25 00:31:11*
%MOMM*%
%LPD*%
G01*
G04 APERTURE LIST*
%TA.AperFunction,Profile*%
%ADD10C,0.050800*%
%TD*%
%TA.AperFunction,Profile*%
%ADD11C,0.050000*%
%TD*%
%TA.AperFunction,Profile*%
%ADD12C,0.100000*%
%TD*%
G04 APERTURE END LIST*
D10*
X141934764Y-107027577D02*
X142061271Y-107079978D01*
X142175124Y-107156052D01*
X142271948Y-107252876D01*
X142348022Y-107366729D01*
X142400423Y-107493236D01*
X142427137Y-107627535D01*
X142430500Y-107696000D01*
X142430500Y-110490000D01*
X142430309Y-110493883D01*
X142442375Y-110780116D01*
X142419737Y-111136054D01*
X142359692Y-111487620D01*
X142262910Y-111830894D01*
X142130470Y-112162049D01*
X141963848Y-112477392D01*
X141764903Y-112773407D01*
X141535852Y-113046793D01*
X141279251Y-113294502D01*
X140997959Y-113513772D01*
X140695115Y-113702157D01*
X140374093Y-113857558D01*
X140038475Y-113978241D01*
X139692002Y-114062861D01*
X139338538Y-114110474D01*
X138982023Y-114120549D01*
X138626434Y-114092974D01*
X138275735Y-114028057D01*
X137933837Y-113926520D01*
X137604551Y-113789498D01*
X137291551Y-113618516D01*
X136998325Y-113415483D01*
X136728143Y-113182661D01*
X136484019Y-112922647D01*
X136268674Y-112638340D01*
X136084509Y-112332910D01*
X135933577Y-112009763D01*
X135817563Y-111672503D01*
X135737759Y-111324889D01*
X135695055Y-110970798D01*
X135689928Y-110614178D01*
X135713402Y-110459535D01*
X135770699Y-110313993D01*
X135858946Y-110184850D01*
X135973717Y-110078581D01*
X136109257Y-110000515D01*
X136258771Y-109954568D01*
X136414760Y-109943042D01*
X136569403Y-109966516D01*
X136714945Y-110023813D01*
X136844088Y-110112060D01*
X136950357Y-110226831D01*
X137028423Y-110362371D01*
X137074370Y-110511885D01*
X137085896Y-110667874D01*
X137080685Y-110803116D01*
X137107173Y-111072503D01*
X137170060Y-111335782D01*
X137268178Y-111588059D01*
X137399703Y-111824643D01*
X137562188Y-112041135D01*
X137752614Y-112233512D01*
X137967439Y-112398196D01*
X138202671Y-112532125D01*
X138453934Y-112632810D01*
X138716558Y-112698378D01*
X138985661Y-112727610D01*
X139256238Y-112719963D01*
X139523261Y-112675580D01*
X139781763Y-112595285D01*
X140026939Y-112480571D01*
X140254231Y-112333570D01*
X140459413Y-112157017D01*
X140638670Y-111954193D01*
X140788669Y-111728869D01*
X140906623Y-111485235D01*
X140990337Y-111227819D01*
X141038255Y-110961409D01*
X141049487Y-110690957D01*
X141036646Y-110556224D01*
X141036673Y-110554613D01*
X141033500Y-110490000D01*
X141033500Y-107696000D01*
X141036863Y-107627535D01*
X141063577Y-107493236D01*
X141115978Y-107366729D01*
X141192052Y-107252876D01*
X141288876Y-107156052D01*
X141402729Y-107079978D01*
X141529236Y-107027577D01*
X141663535Y-107000863D01*
X141800465Y-107000863D01*
X141934764Y-107027577D01*
X142962206Y-82762258D02*
X143318151Y-82820805D01*
X143666145Y-82915801D01*
X144002468Y-83046228D01*
X144323522Y-83210693D01*
X144625873Y-83407436D01*
X144906289Y-83634352D01*
X145161770Y-83889016D01*
X145389583Y-84168704D01*
X145587293Y-84470424D01*
X145752785Y-84790950D01*
X145884288Y-85126853D01*
X145980398Y-85474542D01*
X146040085Y-85830297D01*
X146062711Y-86190314D01*
X146048034Y-86550742D01*
X145996212Y-86907728D01*
X145948781Y-87056777D01*
X145869373Y-87191536D01*
X145761969Y-87305245D01*
X145631955Y-87392204D01*
X145485851Y-87448052D01*
X145330982Y-87469988D01*
X145175115Y-87456913D01*
X145026066Y-87409482D01*
X144891307Y-87330074D01*
X144777598Y-87222670D01*
X144690639Y-87092656D01*
X144634791Y-86946552D01*
X144612855Y-86791683D01*
X144625930Y-86635816D01*
X144652784Y-86500026D01*
X144670404Y-86223746D01*
X144651452Y-85947554D01*
X144596258Y-85676271D01*
X144505786Y-85414630D01*
X144381615Y-85167198D01*
X144225912Y-84938293D01*
X144041395Y-84731910D01*
X143831282Y-84551650D01*
X143599242Y-84400659D01*
X143349323Y-84281573D01*
X143085887Y-84196469D01*
X142813532Y-84146833D01*
X142537011Y-84133531D01*
X142261149Y-84156796D01*
X141990761Y-84216220D01*
X141730566Y-84310768D01*
X141485103Y-84438789D01*
X141371829Y-84518344D01*
X141371828Y-84518346D01*
X141270396Y-84589677D01*
X141085821Y-84755321D01*
X140922117Y-84941619D01*
X140781577Y-85145958D01*
X140666171Y-85365474D01*
X140577516Y-85597091D01*
X140516857Y-85837562D01*
X140485042Y-86083516D01*
X140484805Y-86106788D01*
X142617723Y-89775407D01*
X145207096Y-91776287D01*
X145259215Y-91820811D01*
X145349149Y-91924066D01*
X145417212Y-92042883D01*
X145460787Y-92172694D01*
X145478199Y-92308512D01*
X145468781Y-92445118D01*
X145432892Y-92577261D01*
X145371914Y-92699864D01*
X145288188Y-92808215D01*
X145184933Y-92898149D01*
X145066117Y-92966212D01*
X144936305Y-93009787D01*
X144800487Y-93027200D01*
X144663882Y-93017781D01*
X144531738Y-92981892D01*
X144409135Y-92920914D01*
X144352904Y-92881712D01*
X141830787Y-90932804D01*
X141745943Y-90891283D01*
X141637057Y-90808254D01*
X141567312Y-90729210D01*
X141558904Y-90722713D01*
X141506785Y-90678189D01*
X141416850Y-90574934D01*
X141348788Y-90456117D01*
X141305213Y-90326306D01*
X141300445Y-90289123D01*
X139581541Y-87332607D01*
X139560046Y-87317928D01*
X139453746Y-87203186D01*
X139372762Y-87093251D01*
X139185025Y-86894928D01*
X138974381Y-86721128D01*
X138744012Y-86574476D01*
X138497395Y-86457185D01*
X138238254Y-86371027D01*
X137970503Y-86317303D01*
X137698184Y-86296824D01*
X137425409Y-86309899D01*
X137156297Y-86356331D01*
X137109854Y-86370383D01*
X132992382Y-88144063D01*
X130072510Y-89413573D01*
X130008382Y-89437788D01*
X129995933Y-89440490D01*
X129985892Y-89444624D01*
X129823637Y-89490999D01*
X129511566Y-89619530D01*
X129215879Y-89782250D01*
X128940307Y-89977106D01*
X128688328Y-90201639D01*
X128463121Y-90453016D01*
X128267527Y-90728065D01*
X128104016Y-91023316D01*
X127974651Y-91335042D01*
X127881063Y-91659310D01*
X127824433Y-91992029D01*
X127805477Y-92329000D01*
X127824433Y-92665971D01*
X127881063Y-92998690D01*
X127974651Y-93322958D01*
X128104016Y-93634684D01*
X128267527Y-93929935D01*
X128463121Y-94204984D01*
X128688328Y-94456361D01*
X128940307Y-94680894D01*
X129215879Y-94875750D01*
X129511566Y-95038470D01*
X129823637Y-95167001D01*
X129985892Y-95213376D01*
X130130531Y-95272915D01*
X130258295Y-95363147D01*
X130362778Y-95479546D01*
X130438739Y-95616277D01*
X130482371Y-95766483D01*
X130491485Y-95922631D01*
X130465623Y-96076893D01*
X130406084Y-96221532D01*
X130315852Y-96349296D01*
X130199453Y-96453779D01*
X130062722Y-96529740D01*
X129912516Y-96573372D01*
X129756368Y-96582486D01*
X129602106Y-96556624D01*
X129217505Y-96427265D01*
X128846467Y-96263000D01*
X128492153Y-96065228D01*
X128157581Y-95835635D01*
X127845600Y-95576175D01*
X127558866Y-95289058D01*
X127299823Y-94976730D01*
X127070677Y-94641851D01*
X126873380Y-94287273D01*
X126709611Y-93916017D01*
X126580765Y-93531243D01*
X126487941Y-93136230D01*
X126431928Y-92734341D01*
X126413204Y-92329000D01*
X126431928Y-91923659D01*
X126487941Y-91521770D01*
X126580765Y-91126757D01*
X126709611Y-90741983D01*
X126873380Y-90370727D01*
X127070677Y-90016149D01*
X127299823Y-89681270D01*
X127558866Y-89368942D01*
X127845600Y-89081825D01*
X128157581Y-88822365D01*
X128492153Y-88592772D01*
X128846467Y-88395000D01*
X129217505Y-88230735D01*
X129534975Y-88123955D01*
X132436490Y-86862426D01*
X132437602Y-86862005D01*
X132438657Y-86861489D01*
X136059238Y-85301853D01*
X136069505Y-85292225D01*
X136204541Y-85213291D01*
X136530234Y-85087541D01*
X136605375Y-85066594D01*
X140649591Y-83324470D01*
X140873567Y-83183672D01*
X141197157Y-83024256D01*
X141535482Y-82899113D01*
X141884921Y-82809580D01*
X142241739Y-82756615D01*
X142602119Y-82740785D01*
X142962206Y-82762258D01*
X148385834Y-107714778D02*
X148533243Y-107767085D01*
X148665317Y-107850882D01*
X148775433Y-107961967D01*
X148858069Y-108094770D01*
X148909083Y-108242632D01*
X148925914Y-108398138D01*
X148907721Y-108553491D01*
X148855414Y-108700900D01*
X148771617Y-108832974D01*
X148660532Y-108943090D01*
X148527729Y-109025726D01*
X148424770Y-109074805D01*
X148234567Y-109200741D01*
X148063864Y-109352060D01*
X147916020Y-109525782D01*
X147793947Y-109718487D01*
X147700048Y-109926381D01*
X147636172Y-110145371D01*
X147603575Y-110371146D01*
X147602901Y-110599262D01*
X147634161Y-110825226D01*
X147696741Y-111044590D01*
X147789409Y-111253036D01*
X147910341Y-111446459D01*
X148057154Y-111621052D01*
X148142026Y-111697249D01*
X148197398Y-111759446D01*
X148327008Y-111843575D01*
X148631406Y-112117189D01*
X148910429Y-112416637D01*
X149161893Y-112739574D01*
X149383830Y-113083473D01*
X149574502Y-113445643D01*
X149732417Y-113823248D01*
X149856339Y-114213332D01*
X149945298Y-114612843D01*
X149998598Y-115018653D01*
X150015821Y-115427586D01*
X149996832Y-115836440D01*
X149965319Y-115989647D01*
X149900505Y-116132001D01*
X149805638Y-116256363D01*
X149685478Y-116356497D01*
X149546047Y-116427382D01*
X149394340Y-116465464D01*
X149237962Y-116468832D01*
X149084755Y-116437319D01*
X148942401Y-116372505D01*
X148818039Y-116277638D01*
X148717905Y-116157478D01*
X148647020Y-116018047D01*
X148608938Y-115866340D01*
X148605570Y-115709962D01*
X148619758Y-115553295D01*
X148617652Y-115238688D01*
X148584978Y-114925775D01*
X148522043Y-114617519D01*
X148429445Y-114316840D01*
X148308060Y-114026585D01*
X148159037Y-113749503D01*
X147983788Y-113488217D01*
X147783972Y-113245202D01*
X147561482Y-113022760D01*
X147439988Y-112922837D01*
X147355446Y-112835765D01*
X147336568Y-112827904D01*
X147209174Y-112737151D01*
X146976236Y-112504027D01*
X146770098Y-112246900D01*
X146593216Y-111968836D01*
X146447698Y-111673148D01*
X146335279Y-111363359D01*
X146257298Y-111043163D01*
X146214685Y-110716374D01*
X146207946Y-110386887D01*
X146237164Y-110058629D01*
X146301989Y-109735512D01*
X146401649Y-109421387D01*
X146534956Y-109119997D01*
X146700322Y-108834933D01*
X146895776Y-108569594D01*
X147118988Y-108327142D01*
X147367298Y-108110465D01*
X147637748Y-107922146D01*
X147927113Y-107764430D01*
X148074975Y-107713416D01*
X148230481Y-107696585D01*
X148385834Y-107714778D01*
X119717744Y-95586346D02*
X120077633Y-95651370D01*
X120429154Y-95752272D01*
X120768740Y-95888026D01*
X121092945Y-96057256D01*
X121398480Y-96258244D01*
X121682245Y-96488951D01*
X121913827Y-96719614D01*
X121920261Y-96724792D01*
X122093770Y-96899872D01*
X122462508Y-97227083D01*
X122851448Y-97530002D01*
X123258995Y-97807383D01*
X123683472Y-98058089D01*
X124123137Y-98281090D01*
X124576184Y-98475468D01*
X125040752Y-98640427D01*
X125514932Y-98775288D01*
X125996778Y-98879497D01*
X126240543Y-98916060D01*
X126391657Y-98956436D01*
X126529997Y-99029425D01*
X126648627Y-99131368D01*
X126741599Y-99257153D01*
X126804249Y-99400472D01*
X126833438Y-99554138D01*
X126827700Y-99710447D01*
X126787324Y-99861561D01*
X126714335Y-99999901D01*
X126612392Y-100118531D01*
X126486607Y-100211503D01*
X126343288Y-100274153D01*
X126189622Y-100303342D01*
X126033313Y-100297604D01*
X125512330Y-100203863D01*
X124997692Y-100079939D01*
X124491145Y-99926252D01*
X123994408Y-99743325D01*
X123509169Y-99531777D01*
X123037074Y-99292328D01*
X122579725Y-99025790D01*
X122138677Y-98733069D01*
X121715425Y-98415157D01*
X121311408Y-98073135D01*
X120927995Y-97708162D01*
X120918454Y-97696087D01*
X120906897Y-97685918D01*
X120810089Y-97579313D01*
X120590747Y-97392671D01*
X120349255Y-97235741D01*
X120089609Y-97111122D01*
X119816111Y-97020876D01*
X119533287Y-96966499D01*
X119245823Y-96948891D01*
X118958478Y-96968342D01*
X118676009Y-97024532D01*
X118403095Y-97116530D01*
X118144254Y-97242812D01*
X117903773Y-97401287D01*
X117685633Y-97589332D01*
X117493446Y-97803831D01*
X117330396Y-98041235D01*
X117199182Y-98297610D01*
X117101976Y-98568713D01*
X117040388Y-98850054D01*
X117027874Y-98993511D01*
X117022193Y-99021686D01*
X117019200Y-99058138D01*
X117003625Y-99124893D01*
X115993350Y-102660850D01*
X115779637Y-103622558D01*
X116464151Y-106360617D01*
X130551283Y-111742497D01*
X130614039Y-111770073D01*
X130729961Y-111842957D01*
X130829436Y-111937055D01*
X130908642Y-112048752D01*
X130964535Y-112173755D01*
X130994967Y-112307260D01*
X130998769Y-112444138D01*
X130975795Y-112579127D01*
X130926927Y-112707040D01*
X130854043Y-112822961D01*
X130759944Y-112922436D01*
X130648247Y-113001642D01*
X130523244Y-113057535D01*
X130389739Y-113087968D01*
X130252862Y-113091770D01*
X130117873Y-113068795D01*
X130052716Y-113047503D01*
X115625516Y-107535703D01*
X115583450Y-107517218D01*
X115575863Y-107514500D01*
X115572031Y-107512200D01*
X115562760Y-107508127D01*
X115510947Y-107475550D01*
X115458447Y-107444050D01*
X115453029Y-107439134D01*
X115446839Y-107435243D01*
X115402373Y-107393180D01*
X115357031Y-107352047D01*
X115352677Y-107346170D01*
X115347363Y-107341144D01*
X115311938Y-107291188D01*
X115275512Y-107242026D01*
X115272390Y-107235417D01*
X115268157Y-107229448D01*
X115243160Y-107173543D01*
X115217023Y-107118216D01*
X115214087Y-107108523D01*
X115212264Y-107104445D01*
X115210472Y-107096586D01*
X115197155Y-107052611D01*
X114384355Y-103801411D01*
X114371013Y-103734175D01*
X114369806Y-103709383D01*
X114365508Y-103684934D01*
X114366485Y-103641143D01*
X114364357Y-103597406D01*
X114368009Y-103572857D01*
X114368564Y-103548038D01*
X114380133Y-103480474D01*
X114634133Y-102337474D01*
X114639646Y-102317375D01*
X114644376Y-102297107D01*
X115648538Y-98782538D01*
X115686118Y-98510206D01*
X115772305Y-98154791D01*
X115893811Y-97809850D01*
X116049403Y-97478884D01*
X116237503Y-97165250D01*
X116456203Y-96872131D01*
X116703282Y-96602502D01*
X116976234Y-96359098D01*
X117272288Y-96144390D01*
X117588442Y-95960556D01*
X117921486Y-95809461D01*
X118268042Y-95692640D01*
X118624592Y-95611276D01*
X118987519Y-95566197D01*
X119353139Y-95557859D01*
X119717744Y-95586346D01*
X125531950Y-23878748D02*
X125572982Y-23876884D01*
X125696049Y-23895600D01*
X125813099Y-23937965D01*
X125919636Y-24002352D01*
X126011564Y-24086287D01*
X126085350Y-24186543D01*
X126138160Y-24299267D01*
X126167964Y-24420128D01*
X126173845Y-24482166D01*
X126237345Y-25879166D01*
X126237116Y-25941481D01*
X126218400Y-26064548D01*
X126176035Y-26181599D01*
X126111648Y-26288135D01*
X126027713Y-26380063D01*
X125927457Y-26453850D01*
X125814733Y-26506660D01*
X125693872Y-26536464D01*
X125569518Y-26542116D01*
X125446451Y-26523400D01*
X125329401Y-26481034D01*
X125222864Y-26416647D01*
X125130936Y-26332713D01*
X125057150Y-26232457D01*
X125004340Y-26119733D01*
X124974536Y-25998871D01*
X124968655Y-25936833D01*
X124932708Y-25146000D01*
X113919000Y-25146000D01*
X113856759Y-25142942D01*
X113734669Y-25118657D01*
X113619663Y-25071020D01*
X113516160Y-25001862D01*
X113428138Y-24913840D01*
X113358980Y-24810337D01*
X113311343Y-24695331D01*
X113287058Y-24573241D01*
X113287058Y-24448759D01*
X113311343Y-24326669D01*
X113358980Y-24211663D01*
X113428138Y-24108160D01*
X113516160Y-24020138D01*
X113619663Y-23950980D01*
X113734669Y-23903343D01*
X113856759Y-23879058D01*
X113919000Y-23876000D01*
X125476000Y-23876000D01*
X125531950Y-23878748D01*
X149795241Y-23879058D02*
X149917331Y-23903343D01*
X150032337Y-23950980D01*
X150135840Y-24020138D01*
X150223862Y-24108160D01*
X150293020Y-24211663D01*
X150340657Y-24326669D01*
X150364942Y-24448759D01*
X150368000Y-24511000D01*
X150368000Y-25781000D01*
X150364942Y-25843241D01*
X150340657Y-25965331D01*
X150293020Y-26080337D01*
X150223862Y-26183840D01*
X150135840Y-26271862D01*
X150032337Y-26341020D01*
X149917331Y-26388657D01*
X149795241Y-26412942D01*
X149670759Y-26412942D01*
X149548669Y-26388657D01*
X149433663Y-26341020D01*
X149330160Y-26271862D01*
X149242138Y-26183840D01*
X149172980Y-26080337D01*
X149125343Y-25965331D01*
X149101058Y-25843241D01*
X149098000Y-25781000D01*
X149098000Y-25146000D01*
X133220150Y-25146000D01*
X132952738Y-26304786D01*
X132935763Y-26364745D01*
X132884647Y-26478248D01*
X132812370Y-26579597D01*
X132721709Y-26664899D01*
X132616149Y-26730874D01*
X132499746Y-26774987D01*
X132376973Y-26795544D01*
X132252549Y-26791754D01*
X132131255Y-26763763D01*
X132017752Y-26712647D01*
X131916403Y-26640370D01*
X131831101Y-26549709D01*
X131765126Y-26444149D01*
X131721013Y-26327746D01*
X131700456Y-26204973D01*
X131704246Y-26080549D01*
X131715262Y-26019214D01*
X132096262Y-24368215D01*
X132105734Y-24334756D01*
X132107343Y-24326669D01*
X132109494Y-24321475D01*
X132113237Y-24308255D01*
X132134838Y-24260288D01*
X132154980Y-24211663D01*
X132160370Y-24203596D01*
X132164353Y-24194752D01*
X132194900Y-24151918D01*
X132224138Y-24108160D01*
X132230998Y-24101299D01*
X132236630Y-24093403D01*
X132274941Y-24057356D01*
X132312160Y-24020138D01*
X132320228Y-24014746D01*
X132327291Y-24008102D01*
X132371907Y-23980216D01*
X132415663Y-23950980D01*
X132424622Y-23947268D01*
X132432851Y-23942126D01*
X132482063Y-23923476D01*
X132530669Y-23903343D01*
X132540183Y-23901450D01*
X132549254Y-23898013D01*
X132601149Y-23889323D01*
X132652759Y-23879058D01*
X132666487Y-23878383D01*
X132672027Y-23877456D01*
X132680260Y-23877706D01*
X132715000Y-23876000D01*
X149733000Y-23876000D01*
X149795241Y-23879058D01*
X157356219Y-15240158D02*
X157357772Y-15240017D01*
X157361589Y-15240422D01*
X157415241Y-15243058D01*
X157448166Y-15249607D01*
X157481559Y-15253150D01*
X157509070Y-15261721D01*
X157537331Y-15267343D01*
X157568348Y-15280190D01*
X157600406Y-15290179D01*
X157625717Y-15303953D01*
X157652337Y-15314980D01*
X157680255Y-15333634D01*
X157709745Y-15349683D01*
X157752659Y-15382012D01*
X157755840Y-15384138D01*
X157756938Y-15385236D01*
X157759517Y-15387179D01*
X158497301Y-16002000D01*
X159258000Y-16002000D01*
X159320241Y-16005058D01*
X159442331Y-16029343D01*
X159557337Y-16076980D01*
X159660840Y-16146138D01*
X159748862Y-16234160D01*
X159818020Y-16337663D01*
X159865657Y-16452669D01*
X159889942Y-16574759D01*
X159889942Y-16699241D01*
X159865657Y-16821331D01*
X159818020Y-16936337D01*
X159748862Y-17039840D01*
X159660840Y-17127862D01*
X159557337Y-17197020D01*
X159442331Y-17244657D01*
X159320241Y-17268942D01*
X159258000Y-17272000D01*
X158242000Y-17272000D01*
X158179759Y-17268942D01*
X158057669Y-17244657D01*
X157942663Y-17197020D01*
X157839160Y-17127862D01*
X157751138Y-17039840D01*
X157737838Y-17019935D01*
X157708483Y-16997821D01*
X157123098Y-16510000D01*
X155829000Y-16510000D01*
X155829000Y-25908000D01*
X155825942Y-25970241D01*
X155801657Y-26092331D01*
X155754020Y-26207337D01*
X155684862Y-26310840D01*
X155596840Y-26398862D01*
X155493337Y-26468020D01*
X155378331Y-26515657D01*
X155256241Y-26539942D01*
X155131759Y-26539942D01*
X155009669Y-26515657D01*
X154894663Y-26468020D01*
X154791160Y-26398862D01*
X154703138Y-26310840D01*
X154633980Y-26207337D01*
X154586343Y-26092331D01*
X154562058Y-25970241D01*
X154559000Y-25908000D01*
X154559000Y-15875000D01*
X154562058Y-15812759D01*
X154586343Y-15690669D01*
X154633980Y-15575663D01*
X154703138Y-15472160D01*
X154791160Y-15384138D01*
X154894663Y-15314980D01*
X155009669Y-15267343D01*
X155131759Y-15243058D01*
X155194000Y-15240000D01*
X157353000Y-15240000D01*
X157356219Y-15240158D01*
X113484722Y-119522155D02*
X113937014Y-119571961D01*
X114384459Y-119654676D01*
X114824666Y-119769858D01*
X115255282Y-119916891D01*
X115674006Y-120094989D01*
X116078600Y-120303200D01*
X116466903Y-120540413D01*
X116836839Y-120805359D01*
X117186431Y-121096622D01*
X117513811Y-121412645D01*
X117817230Y-121751741D01*
X118095065Y-122112097D01*
X118112428Y-122142739D01*
X118135630Y-122175247D01*
X118169671Y-122241829D01*
X125154671Y-137735829D01*
X125182022Y-137805426D01*
X125186094Y-137823043D01*
X125192738Y-137839861D01*
X125209709Y-137912689D01*
X125971709Y-142103689D01*
X125981460Y-142177829D01*
X125980918Y-142210678D01*
X125984000Y-142240000D01*
X125965190Y-142828578D01*
X125908835Y-143414754D01*
X125815166Y-143996135D01*
X125684566Y-144570348D01*
X125517566Y-145135051D01*
X125314850Y-145687938D01*
X125077244Y-146226752D01*
X124805717Y-146749295D01*
X124501379Y-147253434D01*
X124165471Y-147737111D01*
X123799364Y-148198353D01*
X123404552Y-148635276D01*
X122982648Y-149046097D01*
X122535372Y-149429140D01*
X122064550Y-149782842D01*
X121572105Y-150105759D01*
X121060045Y-150396572D01*
X120530460Y-150654095D01*
X119985513Y-150877277D01*
X119427427Y-151065207D01*
X118858480Y-151217118D01*
X118280994Y-151332390D01*
X117697326Y-151410553D01*
X117109858Y-151451287D01*
X116520988Y-151454426D01*
X115933119Y-151419958D01*
X115348651Y-151348023D01*
X114769968Y-151238914D01*
X114618906Y-151188346D01*
X114481659Y-151107475D01*
X114364225Y-150999836D01*
X114271736Y-150870133D01*
X114208235Y-150724036D01*
X114176498Y-150567928D01*
X114177910Y-150408633D01*
X114212411Y-150253112D01*
X114278493Y-150108163D01*
X114373267Y-149980121D01*
X114492592Y-149874582D01*
X114631252Y-149796157D01*
X114783187Y-149748276D01*
X114941757Y-149733030D01*
X115100032Y-149751086D01*
X115358553Y-149808468D01*
X115882273Y-149887351D01*
X116410177Y-149930036D01*
X116939766Y-149936324D01*
X117468535Y-149906183D01*
X117993979Y-149839757D01*
X118513613Y-149737361D01*
X119024977Y-149599477D01*
X119525650Y-149426760D01*
X120013263Y-149220027D01*
X120485507Y-148980256D01*
X120940147Y-148708583D01*
X121375032Y-148406292D01*
X121788103Y-148074815D01*
X122177405Y-147715721D01*
X122541096Y-147330710D01*
X122877453Y-146921603D01*
X123184885Y-146490337D01*
X123461937Y-146038954D01*
X123707297Y-145569590D01*
X123919805Y-145084466D01*
X124098453Y-144585878D01*
X124242397Y-144076188D01*
X124350956Y-143557806D01*
X124423615Y-143033187D01*
X124460031Y-142504813D01*
X124460008Y-142308753D01*
X123726981Y-138277109D01*
X116811258Y-122936778D01*
X116736789Y-122832559D01*
X116472892Y-122523453D01*
X116183302Y-122238275D01*
X115870180Y-121979156D01*
X115535863Y-121748027D01*
X115182845Y-121546614D01*
X114813761Y-121376421D01*
X114431366Y-121238716D01*
X114038514Y-121134529D01*
X113638134Y-121064635D01*
X113233217Y-121029558D01*
X113030052Y-121029523D01*
X103124114Y-121031000D01*
X103049424Y-121027342D01*
X102902912Y-120998222D01*
X102764896Y-120941078D01*
X102640680Y-120858106D01*
X102535038Y-120752496D01*
X102452030Y-120628304D01*
X102394844Y-120490306D01*
X102365680Y-120343802D01*
X102365658Y-120194424D01*
X102394778Y-120047912D01*
X102451922Y-119909896D01*
X102534894Y-119785680D01*
X102640504Y-119680038D01*
X102764696Y-119597030D01*
X102902694Y-119539844D01*
X103049198Y-119510680D01*
X103123886Y-119507000D01*
X113029886Y-119505523D01*
X113029963Y-119505526D01*
X113030000Y-119505523D01*
X113484722Y-119522155D01*
D11*
X111506017Y-22733002D02*
X113538013Y-22733001D01*
X112141000Y-21463000D02*
X113538013Y-21463003D01*
X113538000Y-21463000D02*
G75*
G02*
X113538000Y-22733000I0J-635000D01*
G01*
D12*
X91440000Y-16129000D02*
X96139000Y-11430000D01*
X91440000Y-55499000D02*
X91440000Y-16129000D01*
X93980000Y-124460000D02*
X96774000Y-121666000D01*
X93980000Y-153670000D02*
X93980000Y-124460000D01*
X96774000Y-60833000D02*
X91440000Y-55499000D01*
X96774000Y-121666000D02*
X96774000Y-60833000D01*
X101600000Y-161290000D02*
X93980000Y-153670000D01*
X101600000Y-161290000D02*
X152400000Y-161290000D01*
D11*
X110871000Y-11430000D02*
X96139000Y-11430000D01*
X110871000Y-11430000D02*
X110871000Y-22098000D01*
X112141000Y-11430000D02*
X157861000Y-11430000D01*
X111506000Y-22733000D02*
G75*
G02*
X110871000Y-22098000I0J635000D01*
G01*
X112141000Y-21463000D02*
X112141000Y-11430000D01*
D10*
X152146000Y-122682000D02*
G75*
G02*
X152146000Y-124206000I0J-762000D01*
G01*
D11*
X149606000Y-78740000D02*
X157226000Y-78740000D01*
X149606000Y-80264000D02*
G75*
G02*
X149606000Y-78740000I0J762000D01*
G01*
X149606000Y-80264000D02*
X157226000Y-80264000D01*
X149606000Y-84582000D02*
G75*
G02*
X149606000Y-83058000I0J762000D01*
G01*
X149606000Y-84582000D02*
X157226000Y-84582000D01*
X149606000Y-88900000D02*
G75*
G02*
X149606000Y-87376000I0J762000D01*
G01*
X149606000Y-88900000D02*
X157226000Y-88900000D01*
D10*
X152146000Y-139954000D02*
G75*
G02*
X152146000Y-122682000I0J8636000D01*
G01*
X152146000Y-138430000D02*
G75*
G02*
X152146000Y-139954000I0J-762000D01*
G01*
X152146000Y-138430000D02*
G75*
G02*
X152146000Y-124206000I0J7112000D01*
G01*
D12*
X152400000Y-161290000D02*
X160020000Y-153670000D01*
D11*
X157226000Y-60833000D02*
X157226000Y-78740000D01*
D12*
X157226000Y-60833000D02*
X162560000Y-55499000D01*
D11*
X157226000Y-80264000D02*
X157226000Y-83058000D01*
X157226000Y-83058000D02*
X149606000Y-83058000D01*
X157226000Y-84582000D02*
X157226000Y-87376000D01*
X157226000Y-87376000D02*
X149606000Y-87376000D01*
X157226000Y-88900000D02*
X157226000Y-121666000D01*
D12*
X160020000Y-124460000D02*
X157226000Y-121666000D01*
X160020000Y-153670000D02*
X160020000Y-124460000D01*
X162560000Y-16129000D02*
X157861000Y-11430000D01*
X162560000Y-55499000D02*
X162560000Y-16129000D01*
M02*
