%TF.GenerationSoftware,KiCad,Pcbnew,10.0.2*%
%TF.CreationDate,2026-05-25T00:31:11-07:00*%
%TF.ProjectId,LCMTR_01_01,4c434d54-525f-4303-915f-30312e6b6963,rev?*%
%TF.SameCoordinates,Original*%
%TF.FileFunction,Soldermask,Top*%
%TF.FilePolarity,Negative*%
%FSLAX46Y46*%
G04 Gerber Fmt 4.6, Leading zero omitted, Abs format (unit mm)*
G04 Created by KiCad (PCBNEW 10.0.2) date 2026-05-25 00:31:11*
%MOMM*%
%LPD*%
G01*
G04 APERTURE LIST*
G04 Aperture macros list*
%AMRoundRect*
0 Rectangle with rounded corners*
0 $1 Rounding radius*
0 $2 $3 $4 $5 $6 $7 $8 $9 X,Y pos of 4 corners*
0 Add a 4 corners polygon primitive as box body*
4,1,4,$2,$3,$4,$5,$6,$7,$8,$9,$2,$3,0*
0 Add four circle primitives for the rounded corners*
1,1,$1+$1,$2,$3*
1,1,$1+$1,$4,$5*
1,1,$1+$1,$6,$7*
1,1,$1+$1,$8,$9*
0 Add four rect primitives between the rounded corners*
20,1,$1+$1,$2,$3,$4,$5,0*
20,1,$1+$1,$4,$5,$6,$7,0*
20,1,$1+$1,$6,$7,$8,$9,0*
20,1,$1+$1,$8,$9,$2,$3,0*%
%AMHorizOval*
0 Thick line with rounded ends*
0 $1 width*
0 $2 $3 position (X,Y) of the first rounded end (center of the circle)*
0 $4 $5 position (X,Y) of the second rounded end (center of the circle)*
0 Add line between two ends*
20,1,$1,$2,$3,$4,$5,0*
0 Add two circle primitives to create the rounded ends*
1,1,$1,$2,$3*
1,1,$1,$4,$5*%
G04 Aperture macros list end*
%ADD10C,1.270000*%
%ADD11C,1.778000*%
%ADD12C,0.762000*%
%ADD13C,0.200000*%
%ADD14C,1.714500*%
%ADD15C,0.025400*%
%ADD16C,0.100000*%
%ADD17C,2.032000*%
%ADD18C,0.152400*%
%ADD19C,0.127000*%
%ADD20C,2.200000*%
%ADD21C,1.651000*%
%ADD22C,1.905000*%
%ADD23C,1.778000*%
%ADD24O,1.524000X1.524000*%
%ADD25HorizOval,1.524000X0.109985X0.063500X-0.109985X-0.063500X0*%
%ADD26C,1.400000*%
%ADD27HorizOval,1.524000X-0.119341X-0.043437X0.119341X0.043437X0*%
%ADD28C,2.000000*%
%ADD29C,3.302000*%
%ADD30R,0.762000X0.762000*%
%ADD31C,0.650000*%
%ADD32RoundRect,0.102000X0.300000X0.575000X-0.300000X0.575000X-0.300000X-0.575000X0.300000X-0.575000X0*%
%ADD33RoundRect,0.102000X0.150000X0.575000X-0.150000X0.575000X-0.150000X-0.575000X0.150000X-0.575000X0*%
%ADD34O,1.204000X2.304000*%
%ADD35O,1.204000X2.004000*%
%ADD36R,0.400000X0.400000*%
%ADD37C,9.000000*%
%ADD38RoundRect,0.125000X0.125000X0.125000X-0.125000X0.125000X-0.125000X-0.125000X0.125000X-0.125000X0*%
%ADD39RoundRect,0.266700X-0.749300X0.622300X-0.749300X-0.622300X0.749300X-0.622300X0.749300X0.622300X0*%
%ADD40RoundRect,0.150000X0.512500X0.150000X-0.512500X0.150000X-0.512500X-0.150000X0.512500X-0.150000X0*%
%ADD41RoundRect,0.250000X-0.250000X0.275000X-0.250000X-0.275000X0.250000X-0.275000X0.250000X0.275000X0*%
%ADD42RoundRect,0.250000X-0.275000X0.850000X-0.275000X-0.850000X0.275000X-0.850000X0.275000X0.850000X0*%
%ADD43RoundRect,0.125000X0.125000X-0.125000X0.125000X0.125000X-0.125000X0.125000X-0.125000X-0.125000X0*%
%ADD44RoundRect,0.102000X-0.575000X0.300000X-0.575000X-0.300000X0.575000X-0.300000X0.575000X0.300000X0*%
%ADD45RoundRect,0.102000X-0.575000X0.150000X-0.575000X-0.150000X0.575000X-0.150000X0.575000X0.150000X0*%
%ADD46O,2.304000X1.204000*%
%ADD47O,2.004000X1.204000*%
%ADD48C,2.400000*%
%ADD49C,1.016000*%
%ADD50C,3.000000*%
%ADD51C,0.609600*%
%ADD52C,0.889000*%
%ADD53C,0.762000*%
%ADD54C,1.270000*%
%ADD55C,2.540000*%
%ADD56C,1.524000*%
G04 APERTURE END LIST*
D10*
X103759000Y-100076000D02*
X109601000Y-94234000D01*
X112776000Y-111633000D02*
X112776000Y-110744000D01*
X105283000Y-99949000D02*
X105283000Y-98615500D01*
D11*
X123825000Y-127889000D02*
X121666000Y-125730000D01*
D12*
X105156000Y-16891000D02*
X109093000Y-16891000D01*
X105156000Y-15621000D02*
X109093000Y-15621000D01*
X105156000Y-14351000D02*
X109093000Y-14351000D01*
X105156000Y-13081000D02*
X109093000Y-13081000D01*
D13*
X101727000Y-60833000D02*
X104775000Y-60833000D01*
X104775000Y-62865000D01*
X101727000Y-62865000D01*
X101727000Y-60833000D01*
G36*
X101727000Y-60833000D02*
G01*
X104775000Y-60833000D01*
X104775000Y-62865000D01*
X101727000Y-62865000D01*
X101727000Y-60833000D01*
G37*
X101727000Y-64643000D02*
X104775000Y-64643000D01*
X104775000Y-66713100D01*
X101727000Y-66713100D01*
X101727000Y-64643000D01*
G36*
X101727000Y-64643000D02*
G01*
X104775000Y-64643000D01*
X104775000Y-66713100D01*
X101727000Y-66713100D01*
X101727000Y-64643000D01*
G37*
X101727000Y-64643000D02*
X105664000Y-64643000D01*
X105664000Y-72009000D01*
X101727000Y-72009000D01*
X101727000Y-64643000D01*
G36*
X101727000Y-64643000D02*
G01*
X105664000Y-64643000D01*
X105664000Y-72009000D01*
X101727000Y-72009000D01*
X101727000Y-64643000D01*
G37*
X101739700Y-55499000D02*
X105676700Y-55499000D01*
X105676700Y-62865000D01*
X101739700Y-62865000D01*
X101739700Y-55499000D01*
G36*
X101739700Y-55499000D02*
G01*
X105676700Y-55499000D01*
X105676700Y-62865000D01*
X101739700Y-62865000D01*
X101739700Y-55499000D01*
G37*
D14*
X104870250Y-57404000D02*
G75*
G02*
X103155750Y-57404000I-857250J0D01*
G01*
X103155750Y-57404000D02*
G75*
G02*
X104870250Y-57404000I857250J0D01*
G01*
X104870250Y-70104000D02*
G75*
G02*
X103155750Y-70104000I-857250J0D01*
G01*
X103155750Y-70104000D02*
G75*
G02*
X104870250Y-70104000I857250J0D01*
G01*
D11*
X108712000Y-102235000D02*
X111606072Y-108016832D01*
D15*
X150241000Y-80820000D02*
X153035000Y-80820000D01*
X153035000Y-82039200D01*
X150241000Y-82039200D01*
X150241000Y-80820000D01*
G36*
X150241000Y-80820000D02*
G01*
X153035000Y-80820000D01*
X153035000Y-82039200D01*
X150241000Y-82039200D01*
X150241000Y-80820000D01*
G37*
X150241000Y-85569800D02*
X153035000Y-85569800D01*
X153035000Y-86789000D01*
X150241000Y-86789000D01*
X150241000Y-85569800D01*
G36*
X150241000Y-85569800D02*
G01*
X153035000Y-85569800D01*
X153035000Y-86789000D01*
X150241000Y-86789000D01*
X150241000Y-85569800D01*
G37*
X153543000Y-76730600D02*
X156337000Y-76730600D01*
X156337000Y-77949800D01*
X153543000Y-77949800D01*
X153543000Y-76730600D01*
G36*
X153543000Y-76730600D02*
G01*
X156337000Y-76730600D01*
X156337000Y-77949800D01*
X153543000Y-77949800D01*
X153543000Y-76730600D01*
G37*
X153543000Y-81480400D02*
X156337000Y-81480400D01*
X156337000Y-82699600D01*
X153543000Y-82699600D01*
X153543000Y-81480400D01*
G36*
X153543000Y-81480400D02*
G01*
X156337000Y-81480400D01*
X156337000Y-82699600D01*
X153543000Y-82699600D01*
X153543000Y-81480400D01*
G37*
X153543000Y-84985600D02*
X156337000Y-84985600D01*
X156337000Y-86204800D01*
X153543000Y-86204800D01*
X153543000Y-84985600D01*
G36*
X153543000Y-84985600D02*
G01*
X156337000Y-84985600D01*
X156337000Y-86204800D01*
X153543000Y-86204800D01*
X153543000Y-84985600D01*
G37*
X153543000Y-89735400D02*
X156337000Y-89735400D01*
X156337000Y-90954600D01*
X153543000Y-90954600D01*
X153543000Y-89735400D01*
G36*
X153543000Y-89735400D02*
G01*
X156337000Y-89735400D01*
X156337000Y-90954600D01*
X153543000Y-90954600D01*
X153543000Y-89735400D01*
G37*
D10*
X108458000Y-98806000D02*
X111125000Y-96139000D01*
X108458000Y-102362000D02*
X109347000Y-103251000D01*
D16*
X108966000Y-103251000D02*
X109347000Y-103251000D01*
D10*
X109093000Y-113093500D02*
X109093000Y-110617000D01*
X109220000Y-113284000D02*
X108839000Y-112903000D01*
X109601000Y-94234000D02*
X113030000Y-94234000D01*
X110744000Y-113284000D02*
X109220000Y-113284000D01*
X110871000Y-97028000D02*
X111760000Y-97028000D01*
X110934500Y-96393000D02*
X112141000Y-96393000D01*
D17*
X114935000Y-117475000D02*
X110744000Y-113284000D01*
D11*
X116967000Y-117475000D02*
X114935000Y-117475000D01*
D10*
X119888000Y-120396000D02*
X116967000Y-117475000D01*
D18*
X123139200Y-32943800D02*
X123190000Y-32893000D01*
D19*
G36*
X146269335Y-74270498D02*
G01*
X146544387Y-74270498D01*
X146544387Y-74579694D01*
X146845006Y-74579694D01*
X146845006Y-74270498D01*
X147121360Y-74270498D01*
X147121360Y-75159871D01*
X146845006Y-75159871D01*
X146845006Y-74798563D01*
X146544387Y-74798563D01*
X146544387Y-75159871D01*
X146269335Y-75159871D01*
X146269335Y-74270498D01*
G37*
G36*
X147214347Y-74270498D02*
G01*
X147519852Y-74270498D01*
X147699583Y-74570195D01*
X147879368Y-74270498D01*
X148182972Y-74270498D01*
X147836864Y-74787381D01*
X147836864Y-75159871D01*
X147561107Y-75159871D01*
X147561107Y-74787381D01*
X147214347Y-74270498D01*
G37*
G36*
X148764534Y-74274681D02*
G01*
X148828671Y-74286078D01*
X148879369Y-74303285D01*
X148926449Y-74328515D01*
X148967223Y-74359761D01*
X149002320Y-74397303D01*
X149031462Y-74439909D01*
X149054949Y-74487247D01*
X149072779Y-74539905D01*
X149089082Y-74622778D01*
X149094655Y-74712145D01*
X149090340Y-74807520D01*
X149078877Y-74879713D01*
X149062140Y-74933293D01*
X149037288Y-74983524D01*
X149007263Y-75027178D01*
X148971975Y-75064930D01*
X148931573Y-75097052D01*
X148890418Y-75120332D01*
X148848102Y-75135606D01*
X148759265Y-75154183D01*
X148684113Y-75159871D01*
X148275416Y-75159871D01*
X148275416Y-74958372D01*
X148550522Y-74958372D01*
X148617942Y-74958372D01*
X148675983Y-74955647D01*
X148715254Y-74948754D01*
X148740621Y-74939264D01*
X148762410Y-74923997D01*
X148781400Y-74902167D01*
X148797673Y-74872442D01*
X148807979Y-74839596D01*
X148815431Y-74789901D01*
X148818355Y-74717899D01*
X148814528Y-74643861D01*
X148804490Y-74589685D01*
X148790000Y-74551018D01*
X148772160Y-74524217D01*
X148747536Y-74502834D01*
X148715192Y-74486600D01*
X148673217Y-74475928D01*
X148619136Y-74471997D01*
X148550522Y-74471997D01*
X148550522Y-74958372D01*
X148275416Y-74958372D01*
X148275416Y-74270498D01*
X148684113Y-74270498D01*
X148764534Y-74274681D01*
G37*
G36*
X149787169Y-74273452D02*
G01*
X149850656Y-74281209D01*
X149896415Y-74292320D01*
X149938488Y-74311038D01*
X149974451Y-74337802D01*
X150005089Y-74373310D01*
X150027594Y-74414505D01*
X150041519Y-74462037D01*
X150046398Y-74517377D01*
X150042664Y-74565852D01*
X150031988Y-74608056D01*
X150014806Y-74645051D01*
X149991245Y-74678436D01*
X149962472Y-74707340D01*
X149928007Y-74732066D01*
X149888951Y-74750476D01*
X149831438Y-74767242D01*
X149876803Y-74785082D01*
X149903091Y-74800246D01*
X149919261Y-74814913D01*
X149947115Y-74847255D01*
X149985710Y-74902841D01*
X150118703Y-75159871D01*
X149807770Y-75159871D01*
X149660772Y-74887804D01*
X149631790Y-74840754D01*
X149610995Y-74819191D01*
X149579434Y-74803771D01*
X149543575Y-74798563D01*
X149519311Y-74798563D01*
X149519311Y-75159871D01*
X149242956Y-75159871D01*
X149242956Y-74631806D01*
X149519311Y-74631806D01*
X149635313Y-74631806D01*
X149708161Y-74619701D01*
X149732920Y-74610014D01*
X149752782Y-74591799D01*
X149765740Y-74567798D01*
X149770098Y-74540285D01*
X149766811Y-74512849D01*
X149757628Y-74491290D01*
X149742739Y-74474222D01*
X149722837Y-74462770D01*
X149690379Y-74454475D01*
X149640145Y-74451152D01*
X149519311Y-74451152D01*
X149519311Y-74631806D01*
X149242956Y-74631806D01*
X149242956Y-74270498D01*
X149701484Y-74270498D01*
X149787169Y-74273452D01*
G37*
G36*
X151086243Y-75159871D02*
G01*
X150798380Y-75159871D01*
X150754628Y-75013958D01*
X150441307Y-75013958D01*
X150398152Y-75159871D01*
X150116966Y-75159871D01*
X150243769Y-74822882D01*
X150500801Y-74822882D01*
X150696926Y-74822882D01*
X150598565Y-74501907D01*
X150500801Y-74822882D01*
X150243769Y-74822882D01*
X150451621Y-74270498D01*
X150751588Y-74270498D01*
X151086243Y-75159871D01*
G37*
G36*
X151585646Y-74270498D02*
G01*
X151947605Y-74270498D01*
X152087275Y-74811265D01*
X152226348Y-74270498D01*
X152587059Y-74270498D01*
X152587059Y-75159871D01*
X152362381Y-75159871D01*
X152362381Y-74480899D01*
X152188079Y-75159871D01*
X151984626Y-75159871D01*
X151810975Y-74480899D01*
X151810975Y-75159871D01*
X151585646Y-75159871D01*
X151585646Y-74270498D01*
G37*
G36*
X153171888Y-74505167D02*
G01*
X153243444Y-74519691D01*
X153298546Y-74541479D01*
X153347963Y-74573573D01*
X153388373Y-74613560D01*
X153420628Y-74662204D01*
X153442813Y-74716572D01*
X153457275Y-74784223D01*
X153462534Y-74868045D01*
X153462534Y-74895838D01*
X152966985Y-74895838D01*
X152974245Y-74935236D01*
X152985220Y-74964365D01*
X152999175Y-74985459D01*
X153025500Y-75009019D01*
X153056200Y-75023012D01*
X153092705Y-75027854D01*
X153128101Y-75023329D01*
X153161970Y-75009615D01*
X153181405Y-74994870D01*
X153205070Y-74968794D01*
X153448584Y-74989639D01*
X153406983Y-75051372D01*
X153362103Y-75097727D01*
X153313745Y-75130992D01*
X153259241Y-75153098D01*
X153185462Y-75168116D01*
X153087276Y-75173767D01*
X153002004Y-75169079D01*
X152936025Y-75156467D01*
X152885615Y-75137669D01*
X152840182Y-75109419D01*
X152799722Y-75071576D01*
X152763858Y-75022915D01*
X152737496Y-74968621D01*
X152721249Y-74907462D01*
X152715601Y-74837972D01*
X152720841Y-74777718D01*
X152967582Y-74777718D01*
X153211150Y-74777718D01*
X153202681Y-74731553D01*
X153189484Y-74698837D01*
X153172555Y-74676318D01*
X153150039Y-74659594D01*
X153123032Y-74649326D01*
X153090262Y-74645702D01*
X153053271Y-74650943D01*
X153022413Y-74666118D01*
X152996135Y-74691897D01*
X152978624Y-74725237D01*
X152967582Y-74777718D01*
X152720841Y-74777718D01*
X152722055Y-74763759D01*
X152740547Y-74699377D01*
X152770521Y-74643001D01*
X152812442Y-74593319D01*
X152852509Y-74560755D01*
X152898333Y-74535002D01*
X152950754Y-74515976D01*
X153010862Y-74504001D01*
X153079948Y-74499790D01*
X153171888Y-74505167D01*
G37*
G36*
X153874162Y-74270498D02*
G01*
X153874162Y-74513686D01*
X154010195Y-74513686D01*
X154010195Y-74694340D01*
X153874162Y-74694340D01*
X153874162Y-74924391D01*
X153876666Y-74962260D01*
X153882033Y-74979325D01*
X153898060Y-74994538D01*
X153924537Y-75000061D01*
X153954214Y-74996729D01*
X154001076Y-74984211D01*
X154019315Y-75153845D01*
X153928845Y-75168995D01*
X153848052Y-75173767D01*
X153786302Y-75170514D01*
X153742357Y-75162090D01*
X153712019Y-75150100D01*
X153685549Y-75131672D01*
X153664125Y-75107907D01*
X153647368Y-75078066D01*
X153636923Y-75044775D01*
X153629375Y-74994461D01*
X153626415Y-74921623D01*
X153626415Y-74694340D01*
X153535328Y-74694340D01*
X153535328Y-74513686D01*
X153626415Y-74513686D01*
X153626415Y-74396326D01*
X153874162Y-74270498D01*
G37*
G36*
X154553716Y-74505167D02*
G01*
X154625271Y-74519691D01*
X154680373Y-74541479D01*
X154729790Y-74573573D01*
X154770201Y-74613560D01*
X154802455Y-74662204D01*
X154824641Y-74716572D01*
X154839103Y-74784223D01*
X154844362Y-74868045D01*
X154844362Y-74895838D01*
X154348813Y-74895838D01*
X154356073Y-74935236D01*
X154367047Y-74964365D01*
X154381002Y-74985459D01*
X154407328Y-75009019D01*
X154438027Y-75023012D01*
X154474532Y-75027854D01*
X154509929Y-75023329D01*
X154543797Y-75009615D01*
X154563232Y-74994870D01*
X154586898Y-74968794D01*
X154830411Y-74989639D01*
X154788810Y-75051372D01*
X154743930Y-75097727D01*
X154695572Y-75130992D01*
X154641068Y-75153098D01*
X154567290Y-75168116D01*
X154469104Y-75173767D01*
X154383831Y-75169079D01*
X154317852Y-75156467D01*
X154267442Y-75137669D01*
X154222009Y-75109419D01*
X154181549Y-75071576D01*
X154145686Y-75022915D01*
X154119323Y-74968621D01*
X154103076Y-74907462D01*
X154097428Y-74837972D01*
X154102669Y-74777718D01*
X154349410Y-74777718D01*
X154592977Y-74777718D01*
X154584508Y-74731553D01*
X154571311Y-74698837D01*
X154554382Y-74676318D01*
X154531866Y-74659594D01*
X154504860Y-74649326D01*
X154472089Y-74645702D01*
X154435099Y-74650943D01*
X154404240Y-74666118D01*
X154377962Y-74691897D01*
X154360451Y-74725237D01*
X154349410Y-74777718D01*
X154102669Y-74777718D01*
X154103883Y-74763759D01*
X154122375Y-74699377D01*
X154152348Y-74643001D01*
X154194269Y-74593319D01*
X154234336Y-74560755D01*
X154280160Y-74535002D01*
X154332582Y-74515976D01*
X154392689Y-74504001D01*
X154461775Y-74499790D01*
X154553716Y-74505167D01*
G37*
G36*
X154960256Y-74513686D02*
G01*
X155191610Y-74513686D01*
X155191610Y-74619266D01*
X155216380Y-74574994D01*
X155239295Y-74544797D01*
X155260549Y-74525465D01*
X155285399Y-74511497D01*
X155314335Y-74502834D01*
X155348325Y-74499790D01*
X155384076Y-74503150D01*
X155423666Y-74513844D01*
X155467965Y-74533119D01*
X155391426Y-74709159D01*
X155349469Y-74694720D01*
X155322215Y-74690866D01*
X155291969Y-74695429D01*
X155267346Y-74708596D01*
X155246924Y-74731089D01*
X155228172Y-74771523D01*
X155214270Y-74838515D01*
X155208655Y-74943010D01*
X155208655Y-75159871D01*
X154960256Y-75159871D01*
X154960256Y-74513686D01*
G37*
D20*
%TO.C,REF\u002A\u002A*%
X100457000Y-116713000D03*
%TD*%
%TO.C,REF\u002A\u002A*%
X103505000Y-156845000D03*
%TD*%
%TO.C,REF\u002A\u002A*%
X154559000Y-95250000D03*
%TD*%
D21*
%TO.C,C1*%
X149418999Y-110508190D03*
X141919001Y-97517810D03*
%TD*%
D22*
%TO.C,RT1*%
X139034744Y-110773595D03*
X139095256Y-102078405D03*
%TD*%
%TO.C,RT4*%
X145335679Y-115471405D03*
X143716321Y-125066595D03*
%TD*%
%TO.C,RT5*%
X126800941Y-131646283D03*
X127199059Y-126417717D03*
%TD*%
%TO.C,RT3*%
X136878057Y-129337472D03*
X138457943Y-123900528D03*
%TD*%
%TO.C,RT2*%
X131290057Y-130480472D03*
X132869943Y-125043528D03*
%TD*%
D23*
%TO.C,U22*%
X107696000Y-18542000D03*
D24*
X109982000Y-18542000D03*
X113030000Y-18542000D03*
D23*
X115316000Y-18542000D03*
%TD*%
D21*
%TO.C,U24*%
X158730000Y-19177000D03*
X158730000Y-21717000D03*
X158730000Y-24257000D03*
X158730000Y-26797000D03*
X158730000Y-29337000D03*
X158730000Y-31877000D03*
X158730000Y-34417000D03*
X158730000Y-36957000D03*
X158730000Y-39497000D03*
%TD*%
D25*
%TO.C,R8*%
X155321000Y-108153522D03*
X142621000Y-86156478D03*
%TD*%
D26*
%TO.C,R4*%
X125104460Y-119133845D03*
X123789661Y-124040748D03*
%TD*%
D27*
%TO.C,R9*%
X117916807Y-103583542D03*
X123129193Y-117904458D03*
%TD*%
%TO.C,R7*%
X130870806Y-106885543D03*
X136083194Y-121206457D03*
%TD*%
%TO.C,R5*%
X125409807Y-107901543D03*
X130622193Y-122222457D03*
%TD*%
D21*
%TO.C,J30*%
X129159000Y-37973000D03*
%TD*%
D28*
%TO.C,SW1*%
X107436000Y-44232000D03*
X113936000Y-44232000D03*
X107436000Y-48732000D03*
X113936000Y-48732000D03*
%TD*%
D29*
%TO.C,F2*%
X97515674Y-145991248D03*
X104676133Y-148597440D03*
X121383867Y-154678560D03*
X128544326Y-157284752D03*
%TD*%
D21*
%TO.C,J31*%
X126873000Y-37973000D03*
%TD*%
D30*
%TO.C,C94*%
X140055600Y-69291200D03*
X138531600Y-69291200D03*
%TD*%
D31*
%TO.C,J10*%
X126082000Y-17941000D03*
X120302000Y-17941000D03*
D32*
X126392000Y-19006000D03*
X125592000Y-19006000D03*
D33*
X124442000Y-19006000D03*
X123442000Y-19006000D03*
X122942000Y-19006000D03*
X121942000Y-19006000D03*
D32*
X119992000Y-19006000D03*
X120792000Y-19006000D03*
D33*
X121442000Y-19006000D03*
X122442000Y-19006000D03*
X123942000Y-19006000D03*
X124942000Y-19006000D03*
D34*
X127512000Y-18441000D03*
X118872000Y-18441000D03*
D35*
X127512000Y-14261000D03*
X118872000Y-14261000D03*
%TD*%
D28*
%TO.C,SW2*%
X118436000Y-44232000D03*
X124936000Y-44232000D03*
X118436000Y-48732000D03*
X124936000Y-48732000D03*
%TD*%
D30*
%TO.C,J6*%
X116687600Y-115722400D03*
D36*
X116687600Y-116284400D03*
X116687600Y-116684400D03*
D30*
X116687600Y-117246400D03*
%TD*%
D20*
%TO.C,REF\u002A\u002A*%
X94996000Y-53086000D03*
%TD*%
D37*
%TO.C,J3*%
X117475000Y-142240000D03*
%TD*%
D21*
%TO.C,J16*%
X140335000Y-33020000D03*
%TD*%
D28*
%TO.C,SW0*%
X96436000Y-44232000D03*
X102936000Y-44232000D03*
X96436000Y-48732000D03*
X102936000Y-48732000D03*
%TD*%
D30*
%TO.C,J15*%
X138757000Y-34925000D03*
D36*
X138195000Y-34925000D03*
X137795000Y-34925000D03*
D30*
X137233000Y-34925000D03*
%TD*%
D37*
%TO.C,J4*%
X101870154Y-131312920D03*
%TD*%
D30*
%TO.C,J12*%
X143256000Y-63754000D03*
%TD*%
D21*
%TO.C,J34*%
X135255000Y-30480000D03*
%TD*%
%TO.C,J21*%
X140335000Y-40640000D03*
%TD*%
D30*
%TO.C,J11*%
X140075000Y-63754000D03*
%TD*%
D21*
%TO.C,J22*%
X142875000Y-38100000D03*
%TD*%
D30*
%TO.C,J13*%
X151384000Y-18034000D03*
%TD*%
D38*
%TO.C,D9*%
X103081000Y-26797000D03*
X100881000Y-26797000D03*
%TD*%
D21*
%TO.C,J32*%
X102870000Y-36830000D03*
%TD*%
D39*
%TO.C,R58*%
X127000000Y-134874000D03*
X127000000Y-150114000D03*
%TD*%
D30*
%TO.C,J14*%
X151384000Y-16383000D03*
%TD*%
D21*
%TO.C,J33*%
X102870000Y-39370000D03*
%TD*%
%TO.C,J19*%
X140335000Y-30480000D03*
%TD*%
%TO.C,J18*%
X140335000Y-35560000D03*
%TD*%
D30*
%TO.C,J28*%
X104190800Y-24739600D03*
%TD*%
D40*
%TO.C,U38*%
X142361500Y-66990000D03*
X142361500Y-66040000D03*
X142361500Y-65090000D03*
X140086500Y-65090000D03*
X140086500Y-66040000D03*
X140086500Y-66990000D03*
%TD*%
D21*
%TO.C,J24*%
X137795000Y-30480000D03*
%TD*%
D30*
%TO.C,J7*%
X144780000Y-34217000D03*
D36*
X144780000Y-33655000D03*
X144780000Y-33255000D03*
D30*
X144780000Y-32693000D03*
%TD*%
D21*
%TO.C,J26*%
X98552000Y-22325000D03*
%TD*%
D30*
%TO.C,R93*%
X141986000Y-70205600D03*
X141986000Y-68681600D03*
%TD*%
D21*
%TO.C,J17*%
X137795000Y-33020000D03*
%TD*%
%TO.C,J27*%
X98552000Y-15775000D03*
%TD*%
D41*
%TO.C,J36*%
X142443200Y-71616400D03*
D42*
X143918200Y-73141400D03*
X140968200Y-73141400D03*
%TD*%
D43*
%TO.C,D10*%
X143484600Y-31300600D03*
X143484600Y-29100600D03*
%TD*%
D28*
%TO.C,SW4*%
X140436000Y-44232000D03*
X146936000Y-44232000D03*
X140436000Y-48732000D03*
X146936000Y-48732000D03*
%TD*%
D20*
%TO.C,REF\u002A\u002A*%
X149860000Y-145415000D03*
%TD*%
D21*
%TO.C,J23*%
X140335000Y-38100000D03*
%TD*%
D30*
%TO.C,J25*%
X142875000Y-34217000D03*
D36*
X142875000Y-33655000D03*
X142875000Y-33255000D03*
D30*
X142875000Y-32693000D03*
%TD*%
D20*
%TO.C,REF\u002A\u002A*%
X157226000Y-53721000D03*
%TD*%
D31*
%TO.C,J9*%
X97697000Y-27971000D03*
X97697000Y-33751000D03*
D44*
X98762000Y-27661000D03*
X98762000Y-28461000D03*
D45*
X98762000Y-29611000D03*
X98762000Y-30611000D03*
X98762000Y-31111000D03*
X98762000Y-32111000D03*
D44*
X98762000Y-34061000D03*
X98762000Y-33261000D03*
D45*
X98762000Y-32611000D03*
X98762000Y-31611000D03*
X98762000Y-30111000D03*
X98762000Y-29111000D03*
D46*
X98197000Y-26541000D03*
X98197000Y-35181000D03*
D47*
X94017000Y-26541000D03*
X94017000Y-35181000D03*
%TD*%
D30*
%TO.C,C92*%
X138277600Y-65836800D03*
X138277600Y-64312800D03*
%TD*%
D29*
%TO.C,F1*%
X116250351Y-132636065D03*
X113030000Y-125730000D03*
X105515848Y-109615848D03*
X102295497Y-102709783D03*
%TD*%
D37*
%TO.C,J1*%
X152129744Y-131312920D03*
%TD*%
D21*
%TO.C,J35*%
X135255000Y-33020000D03*
%TD*%
D48*
%TO.C,J2*%
X137625183Y-88592991D03*
X137625184Y-94287010D03*
X134778174Y-99218175D03*
X129847009Y-102065183D03*
X124152990Y-102065184D03*
X119221825Y-99218174D03*
X116374817Y-94287009D03*
X116374816Y-88592990D03*
X119221826Y-83661825D03*
X124152991Y-80814817D03*
X129847010Y-80814816D03*
X134778175Y-83661826D03*
X130863703Y-92475276D03*
X123136297Y-90404724D03*
%TD*%
D28*
%TO.C,SW3*%
X129436000Y-44232000D03*
X135936000Y-44232000D03*
X129436000Y-48732000D03*
X135936000Y-48732000D03*
%TD*%
D30*
%TO.C,J8*%
X140081000Y-68072000D03*
%TD*%
D28*
%TO.C,SW8*%
X151436000Y-44232000D03*
X157936000Y-44232000D03*
X151436000Y-48732000D03*
X157936000Y-48732000D03*
%TD*%
D37*
%TO.C,J5*%
X136525000Y-142240000D03*
%TD*%
D30*
%TO.C,J29*%
X102717600Y-24739600D03*
%TD*%
%TO.C,C93*%
X143916400Y-66598800D03*
X143916400Y-68122800D03*
%TD*%
D49*
X125222000Y-129032000D03*
X123825000Y-127381000D03*
X114935000Y-117475000D03*
X111506000Y-110363000D03*
D50*
X96139000Y-18465800D03*
X96139000Y-40462200D03*
X155143200Y-40462200D03*
D51*
X141986000Y-63754000D03*
D52*
X133350000Y-65278000D03*
D53*
X112395000Y-96520000D03*
X111252000Y-96139000D03*
D49*
X108458000Y-110617000D03*
X109347000Y-103251000D03*
X110998000Y-113538000D03*
X108839000Y-112903000D03*
D53*
X111506000Y-97282000D03*
D51*
X143891000Y-65405000D03*
X143205200Y-69291200D03*
D54*
X113893600Y-51358800D03*
D53*
X119126000Y-29210000D03*
D52*
X134239000Y-64389000D03*
D55*
X142768528Y-125201472D02*
X139319000Y-128651000D01*
X139319000Y-128651000D02*
X137795000Y-128651000D01*
X143581444Y-125201472D02*
X142768528Y-125201472D01*
X143716321Y-125066595D02*
X143581444Y-125201472D01*
D11*
X121793000Y-125095000D02*
X121793000Y-125603000D01*
X120777000Y-124079000D02*
X121793000Y-125095000D01*
X120777000Y-123317000D02*
X120777000Y-124079000D01*
D10*
X120777000Y-124079000D02*
X120777000Y-124841000D01*
X120777000Y-124841000D02*
X121666000Y-125730000D01*
D11*
X120777000Y-121285000D02*
X120777000Y-123317000D01*
D17*
X117792500Y-118300500D02*
X120777000Y-121285000D01*
D56*
X112776000Y-110363000D02*
X112776000Y-115316000D01*
X109728000Y-110109000D02*
X110490000Y-109347000D01*
X112167928Y-108230928D02*
X112776000Y-108839000D01*
X112776000Y-108839000D02*
X112776000Y-110363000D01*
X110490000Y-109347000D02*
X111606072Y-108230928D01*
X109093000Y-110109000D02*
X109728000Y-110109000D01*
D10*
X108458000Y-98806000D02*
X108458000Y-102362000D01*
D18*
X151790400Y-76962000D02*
X151790400Y-78003400D01*
X154432000Y-76022200D02*
X152730200Y-76022200D01*
X152730200Y-76022200D02*
X151790400Y-76962000D01*
X154432000Y-76022200D02*
X156591000Y-76022200D01*
M02*
