%TF.GenerationSoftware,KiCad,Pcbnew,10.0.2*%
%TF.CreationDate,2026-05-25T00:31:11-07:00*%
%TF.ProjectId,LCMTR_01_01,4c434d54-525f-4303-915f-30312e6b6963,rev?*%
%TF.SameCoordinates,Original*%
%TF.FileFunction,Soldermask,Bot*%
%TF.FilePolarity,Negative*%
%FSLAX46Y46*%
G04 Gerber Fmt 4.6, Leading zero omitted, Abs format (unit mm)*
G04 Created by KiCad (PCBNEW 10.0.2) date 2026-05-25 00:31:11*
%MOMM*%
%LPD*%
G01*
G04 APERTURE LIST*
G04 Aperture macros list*
%AMRoundRect*
0 Rectangle with rounded corners*
0 $1 Rounding radius*
0 $2 $3 $4 $5 $6 $7 $8 $9 X,Y pos of 4 corners*
0 Add a 4 corners polygon primitive as box body*
4,1,4,$2,$3,$4,$5,$6,$7,$8,$9,$2,$3,0*
0 Add four circle primitives for the rounded corners*
1,1,$1+$1,$2,$3*
1,1,$1+$1,$4,$5*
1,1,$1+$1,$6,$7*
1,1,$1+$1,$8,$9*
0 Add four rect primitives between the rounded corners*
20,1,$1+$1,$2,$3,$4,$5,0*
20,1,$1+$1,$4,$5,$6,$7,0*
20,1,$1+$1,$6,$7,$8,$9,0*
20,1,$1+$1,$8,$9,$2,$3,0*%
%AMHorizOval*
0 Thick line with rounded ends*
0 $1 width*
0 $2 $3 position (X,Y) of the first rounded end (center of the circle)*
0 $4 $5 position (X,Y) of the second rounded end (center of the circle)*
0 Add line between two ends*
20,1,$1,$2,$3,$4,$5,0*
0 Add two circle primitives to create the rounded ends*
1,1,$1,$2,$3*
1,1,$1,$4,$5*%
%AMRotRect*
0 Rectangle, with rotation*
0 The origin of the aperture is its center*
0 $1 length*
0 $2 width*
0 $3 Rotation angle, in degrees counterclockwise*
0 Add horizontal line*
21,1,$1,$2,0,0,$3*%
%AMFreePoly0*
4,1,14,0.385355,0.085355,0.400000,0.050000,0.400000,0.000711,0.385355,-0.034644,0.334644,-0.085355,0.299289,-0.100000,-0.350000,-0.100000,-0.385355,-0.085355,-0.400000,-0.050000,-0.400000,0.050000,-0.385355,0.085355,-0.350000,0.100000,0.350000,0.100000,0.385355,0.085355,0.385355,0.085355,$1*%
%AMFreePoly1*
4,1,14,0.334644,0.085355,0.385355,0.034644,0.400000,-0.000711,0.400000,-0.050000,0.385355,-0.085355,0.350000,-0.100000,-0.350000,-0.100000,-0.385355,-0.085355,-0.400000,-0.050000,-0.400000,0.050000,-0.385355,0.085355,-0.350000,0.100000,0.299289,0.100000,0.334644,0.085355,0.334644,0.085355,$1*%
%AMFreePoly2*
4,1,14,0.085355,0.385355,0.100000,0.350000,0.100000,-0.350000,0.085355,-0.385355,0.050000,-0.400000,0.000711,-0.400000,-0.034644,-0.385355,-0.085355,-0.334644,-0.100000,-0.299289,-0.100000,0.350000,-0.085355,0.385355,-0.050000,0.400000,0.050000,0.400000,0.085355,0.385355,0.085355,0.385355,$1*%
%AMFreePoly3*
4,1,14,0.085355,0.385355,0.100000,0.350000,0.100000,-0.299289,0.085355,-0.334644,0.034644,-0.385355,-0.000711,-0.400000,-0.050000,-0.400000,-0.085355,-0.385355,-0.100000,-0.350000,-0.100000,0.350000,-0.085355,0.385355,-0.050000,0.400000,0.050000,0.400000,0.085355,0.385355,0.085355,0.385355,$1*%
%AMFreePoly4*
4,1,14,0.385355,0.085355,0.400000,0.050000,0.400000,-0.050000,0.385355,-0.085355,0.350000,-0.100000,-0.350000,-0.100000,-0.385355,-0.085355,-0.400000,-0.050000,-0.400000,-0.000711,-0.385355,0.034644,-0.334644,0.085355,-0.299289,0.100000,0.350000,0.100000,0.385355,0.085355,0.385355,0.085355,$1*%
%AMFreePoly5*
4,1,14,0.385355,0.085355,0.400000,0.050000,0.400000,-0.050000,0.385355,-0.085355,0.350000,-0.100000,-0.299289,-0.100000,-0.334644,-0.085355,-0.385355,-0.034644,-0.400000,0.000711,-0.400000,0.050000,-0.385355,0.085355,-0.350000,0.100000,0.350000,0.100000,0.385355,0.085355,0.385355,0.085355,$1*%
%AMFreePoly6*
4,1,14,0.034644,0.385355,0.085355,0.334644,0.100000,0.299289,0.100000,-0.350000,0.085355,-0.385355,0.050000,-0.400000,-0.050000,-0.400000,-0.085355,-0.385355,-0.100000,-0.350000,-0.100000,0.350000,-0.085355,0.385355,-0.050000,0.400000,-0.000711,0.400000,0.034644,0.385355,0.034644,0.385355,$1*%
%AMFreePoly7*
4,1,14,0.085355,0.385355,0.100000,0.350000,0.100000,-0.350000,0.085355,-0.385355,0.050000,-0.400000,-0.050000,-0.400000,-0.085355,-0.385355,-0.100000,-0.350000,-0.100000,0.299289,-0.085355,0.334644,-0.034644,0.385355,0.000711,0.400000,0.050000,0.400000,0.085355,0.385355,0.085355,0.385355,$1*%
G04 Aperture macros list end*
%ADD10C,0.100000*%
%ADD11C,2.032000*%
%ADD12C,0.304800*%
%ADD13C,3.810000*%
%ADD14C,0.508000*%
%ADD15C,0.177800*%
%ADD16C,0.203200*%
%ADD17C,0.152400*%
%ADD18C,2.200000*%
%ADD19R,0.762000X0.762000*%
%ADD20R,0.500000X1.000000*%
%ADD21C,1.651000*%
%ADD22C,1.905000*%
%ADD23C,1.778000*%
%ADD24O,1.524000X1.524000*%
%ADD25HorizOval,1.524000X0.109985X0.063500X-0.109985X-0.063500X0*%
%ADD26C,1.400000*%
%ADD27HorizOval,1.524000X-0.119341X-0.043437X0.119341X0.043437X0*%
%ADD28C,2.000000*%
%ADD29C,3.302000*%
%ADD30C,0.650000*%
%ADD31O,1.204000X2.304000*%
%ADD32O,1.204000X2.004000*%
%ADD33C,9.000000*%
%ADD34RoundRect,0.266700X-0.749300X0.622300X-0.749300X-0.622300X0.749300X-0.622300X0.749300X0.622300X0*%
%ADD35O,2.304000X1.204000*%
%ADD36O,2.004000X1.204000*%
%ADD37C,2.400000*%
%ADD38RoundRect,0.208334X0.541666X-0.741666X0.541666X0.741666X-0.541666X0.741666X-0.541666X-0.741666X0*%
%ADD39RoundRect,0.050000X0.100000X0.050000X-0.100000X0.050000X-0.100000X-0.050000X0.100000X-0.050000X0*%
%ADD40R,0.700000X0.400000*%
%ADD41O,1.000000X0.300000*%
%ADD42O,0.300000X1.000000*%
%ADD43RoundRect,0.100000X0.600000X-0.400000X0.600000X0.400000X-0.600000X0.400000X-0.600000X-0.400000X0*%
%ADD44RoundRect,0.150000X-0.150000X0.650000X-0.150000X-0.650000X0.150000X-0.650000X0.150000X0.650000X0*%
%ADD45R,1.524000X1.524000*%
%ADD46R,1.000000X0.500000*%
%ADD47R,0.800000X0.400000*%
%ADD48RoundRect,0.050000X-0.100000X-0.050000X0.100000X-0.050000X0.100000X0.050000X-0.100000X0.050000X0*%
%ADD49RotRect,0.762000X1.524000X20.000000*%
%ADD50RoundRect,0.076200X-0.051861X-0.748689X0.520976X-0.540193X0.051861X0.748689X-0.520976X0.540193X0*%
%ADD51R,1.270000X1.270000*%
%ADD52R,1.524000X0.762000*%
%ADD53RotRect,1.524000X1.524000X320.000000*%
%ADD54RoundRect,0.152400X-0.858824X-0.075137X0.075137X-0.858824X0.858824X0.075137X-0.075137X0.858824X0*%
%ADD55RoundRect,0.050000X0.050000X-0.387500X0.050000X0.387500X-0.050000X0.387500X-0.050000X-0.387500X0*%
%ADD56RoundRect,0.050000X0.387500X-0.050000X0.387500X0.050000X-0.387500X0.050000X-0.387500X-0.050000X0*%
%ADD57R,3.200000X3.200000*%
%ADD58R,0.400000X0.700000*%
%ADD59RoundRect,0.050000X-0.050000X0.100000X-0.050000X-0.100000X0.050000X-0.100000X0.050000X0.100000X0*%
%ADD60R,2.000000X0.450000*%
%ADD61R,1.200000X0.450000*%
%ADD62RoundRect,0.208334X-0.541666X0.741666X-0.541666X-0.741666X0.541666X-0.741666X0.541666X0.741666X0*%
%ADD63FreePoly0,90.000000*%
%ADD64RoundRect,0.050000X0.050000X-0.350000X0.050000X0.350000X-0.050000X0.350000X-0.050000X-0.350000X0*%
%ADD65FreePoly1,90.000000*%
%ADD66FreePoly2,90.000000*%
%ADD67RoundRect,0.050000X0.350000X-0.050000X0.350000X0.050000X-0.350000X0.050000X-0.350000X-0.050000X0*%
%ADD68FreePoly3,90.000000*%
%ADD69FreePoly4,90.000000*%
%ADD70FreePoly5,90.000000*%
%ADD71FreePoly6,90.000000*%
%ADD72FreePoly7,90.000000*%
%ADD73R,1.700000X1.700000*%
%ADD74RotRect,1.270000X1.270000X315.000000*%
%ADD75RotRect,0.500000X1.000000X45.000000*%
%ADD76RoundRect,0.150000X0.650000X0.150000X-0.650000X0.150000X-0.650000X-0.150000X0.650000X-0.150000X0*%
%ADD77R,0.762000X1.524000*%
%ADD78RoundRect,0.076200X0.304800X0.685800X-0.304800X0.685800X-0.304800X-0.685800X0.304800X-0.685800X0*%
%ADD79RotRect,1.270000X1.270000X320.000000*%
%ADD80RoundRect,0.100000X-0.600000X0.400000X-0.600000X-0.400000X0.600000X-0.400000X0.600000X0.400000X0*%
%ADD81RoundRect,0.050000X-0.050000X0.387500X-0.050000X-0.387500X0.050000X-0.387500X0.050000X0.387500X0*%
%ADD82RoundRect,0.050000X-0.387500X0.050000X-0.387500X-0.050000X0.387500X-0.050000X0.387500X0.050000X0*%
%ADD83R,1.000000X1.000000*%
%ADD84RoundRect,0.162500X-0.162500X0.650000X-0.162500X-0.650000X0.162500X-0.650000X0.162500X0.650000X0*%
%ADD85R,0.508000X0.508000*%
%ADD86RoundRect,0.162500X0.162500X-0.650000X0.162500X0.650000X-0.162500X0.650000X-0.162500X-0.650000X0*%
%ADD87RoundRect,0.076200X-0.304800X-0.685800X0.304800X-0.685800X0.304800X0.685800X-0.304800X0.685800X0*%
%ADD88C,1.016000*%
%ADD89C,3.000000*%
%ADD90C,0.889000*%
%ADD91C,0.762000*%
%ADD92C,1.270000*%
%ADD93C,0.635000*%
%ADD94C,2.540000*%
G04 APERTURE END LIST*
D10*
X125825250Y-149352000D02*
X128143000Y-149352000D01*
X128651000Y-148844000D01*
X129794000Y-148844000D01*
X130683000Y-148844000D01*
X131064000Y-148844000D01*
X131318000Y-149098000D01*
X131699000Y-149352000D01*
X132715000Y-150114000D01*
X132969000Y-150241000D01*
X133858000Y-151003000D01*
X133858000Y-160528000D01*
X133604000Y-160782000D01*
X118237000Y-160782000D01*
X118110000Y-160655000D01*
X118110000Y-153670000D01*
X119634000Y-152146000D01*
X122438352Y-150617932D01*
X123523092Y-149529525D01*
X124206000Y-148844000D01*
X124981948Y-149098000D01*
X125825250Y-149352000D01*
G36*
X131318000Y-149098000D02*
G01*
X131699000Y-149352000D01*
X132715000Y-150114000D01*
X132969000Y-150241000D01*
X133858000Y-151003000D01*
X133858000Y-160528000D01*
X133604000Y-160782000D01*
X118237000Y-160782000D01*
X118110000Y-160655000D01*
X118110000Y-153670000D01*
X119634000Y-152146000D01*
X122438352Y-150617932D01*
X123523092Y-149529525D01*
X124206000Y-148844000D01*
X124981948Y-149098000D01*
X125825250Y-149352000D01*
X128143000Y-149352000D01*
X128651000Y-148844000D01*
X129794000Y-148844000D01*
X130683000Y-148844000D01*
X131064000Y-148844000D01*
X131318000Y-149098000D01*
G37*
D11*
X97282000Y-137160000D02*
X97282000Y-145034000D01*
X97536000Y-146050000D02*
X104182653Y-148971000D01*
X98679000Y-138430000D02*
X98679000Y-146304000D01*
X100457000Y-139192000D02*
X100457000Y-147066000D01*
X102235000Y-139954000D02*
X102235000Y-147828000D01*
X103759000Y-139954000D02*
X103759000Y-147828000D01*
D12*
X104571800Y-42240200D02*
X104571800Y-42849800D01*
D11*
X105283000Y-139319000D02*
X105283000Y-147193000D01*
D12*
X105486200Y-42240200D02*
X105486200Y-42849800D01*
D11*
X106426000Y-137160000D02*
G75*
G02*
X97282000Y-137160000I-4572000J5841998D01*
G01*
X106426000Y-137160000D02*
X106426000Y-147955000D01*
D13*
X113030000Y-125730000D02*
X116246436Y-132598176D01*
D11*
X114588507Y-135880027D02*
X114588507Y-129667000D01*
X114588507Y-135880027D02*
G75*
G02*
X118733689Y-135370000I2886493J-6359873D01*
G01*
D14*
X115697000Y-133985000D02*
X115697000Y-134874000D01*
D12*
X115747800Y-46786800D02*
X115747800Y-46177200D01*
X116662200Y-46786800D02*
X116662200Y-46177200D01*
D11*
X118733719Y-135370006D02*
X115728348Y-129624376D01*
D12*
X119684800Y-87934800D02*
X119684800Y-87325200D01*
X120599200Y-87934800D02*
X120599200Y-87325200D01*
X121970800Y-83870800D02*
X121361200Y-83870800D01*
X121970800Y-84785200D02*
X121361200Y-84785200D01*
X131114800Y-82854800D02*
X130505200Y-82854800D01*
X131114800Y-83769200D02*
X130505200Y-83769200D01*
D15*
X136042400Y-16675100D02*
X136245600Y-16675100D01*
X136245600Y-17076420D02*
X136067800Y-17076420D01*
D16*
X137033000Y-64348360D02*
X137287000Y-64348360D01*
X137033000Y-64744600D02*
X137287000Y-64744600D01*
X137033000Y-65144650D02*
X137287000Y-65144650D01*
X137033000Y-65544700D02*
X137287000Y-65544700D01*
X137033000Y-65944750D02*
X137287000Y-65944750D01*
D12*
X137718800Y-46786800D02*
X137718800Y-46177200D01*
X138633200Y-46786800D02*
X138633200Y-46177200D01*
D17*
X144399000Y-77216000D02*
X144399000Y-78613000D01*
X144399000Y-78613000D02*
X145415000Y-79629000D01*
X144526000Y-77089000D02*
X144399000Y-77216000D01*
X145415000Y-75819000D02*
X145415000Y-76200000D01*
X145415000Y-76200000D02*
X144526000Y-77089000D01*
X145415000Y-79629000D02*
X145415000Y-81026000D01*
X146304000Y-74930000D02*
X145415000Y-75819000D01*
X147320000Y-74930000D02*
X146304000Y-74930000D01*
X147828000Y-75438000D02*
X147320000Y-74930000D01*
X147828000Y-75438000D02*
X147828000Y-76581000D01*
X147828000Y-76581000D02*
X148590000Y-77343000D01*
X148209000Y-75057000D02*
X147828000Y-75438000D01*
X148590000Y-77343000D02*
X149987000Y-77343000D01*
X149225000Y-75057000D02*
X148209000Y-75057000D01*
X149860000Y-75692000D02*
X149225000Y-75057000D01*
X149987000Y-77343000D02*
X150241000Y-77597000D01*
X150241000Y-77597000D02*
X150241000Y-77978000D01*
X152654000Y-75692000D02*
X149860000Y-75692000D01*
X153797000Y-75692000D02*
X152654000Y-75692000D01*
X153924000Y-75819000D02*
X153797000Y-75692000D01*
D12*
X154000200Y-35560000D02*
X154609800Y-35560000D01*
X154609800Y-36474400D02*
X154000200Y-36474400D01*
D17*
X154686000Y-75819000D02*
X153924000Y-75819000D01*
X154940000Y-58674000D02*
X155321000Y-58293000D01*
X154940000Y-75565000D02*
X154686000Y-75819000D01*
X154940000Y-75565000D02*
X154940000Y-58674000D01*
X155321000Y-58293000D02*
X156718000Y-58293000D01*
D18*
%TO.C,REF\u002A\u002A*%
X100457000Y-116713000D03*
%TD*%
%TO.C,REF\u002A\u002A*%
X103505000Y-156845000D03*
%TD*%
D19*
%TO.C,R36*%
X110236000Y-84836000D03*
X110236000Y-86360000D03*
%TD*%
%TO.C,R111*%
X110998000Y-89281000D03*
X112522000Y-89281000D03*
%TD*%
%TO.C,C6*%
X105156000Y-88900000D03*
X103632000Y-88900000D03*
%TD*%
D20*
%TO.C,Q10*%
X104486000Y-92604000D03*
X106386000Y-92604000D03*
X105436000Y-95004000D03*
%TD*%
D19*
%TO.C,R110*%
X109474000Y-87884000D03*
X110998000Y-87884000D03*
%TD*%
D18*
%TO.C,REF\u002A\u002A*%
X154559000Y-95250000D03*
%TD*%
D21*
%TO.C,C1*%
X149418999Y-110508190D03*
X141919001Y-97517810D03*
%TD*%
D22*
%TO.C,RT1*%
X139034744Y-110773595D03*
X139095256Y-102078405D03*
%TD*%
%TO.C,RT4*%
X145335679Y-115471405D03*
X143716321Y-125066595D03*
%TD*%
%TO.C,RT5*%
X126800941Y-131646283D03*
X127199059Y-126417717D03*
%TD*%
%TO.C,RT3*%
X136878057Y-129337472D03*
X138457943Y-123900528D03*
%TD*%
%TO.C,RT2*%
X131290057Y-130480472D03*
X132869943Y-125043528D03*
%TD*%
D23*
%TO.C,U22*%
X107696000Y-18542000D03*
D24*
X109982000Y-18542000D03*
X113030000Y-18542000D03*
D23*
X115316000Y-18542000D03*
%TD*%
D21*
%TO.C,U24*%
X158730000Y-19177000D03*
X158730000Y-21717000D03*
X158730000Y-24257000D03*
X158730000Y-26797000D03*
X158730000Y-29337000D03*
X158730000Y-31877000D03*
X158730000Y-34417000D03*
X158730000Y-36957000D03*
X158730000Y-39497000D03*
%TD*%
D25*
%TO.C,R8*%
X155321000Y-108153522D03*
X142621000Y-86156478D03*
%TD*%
D26*
%TO.C,R4*%
X125104460Y-119133845D03*
X123789661Y-124040748D03*
%TD*%
D27*
%TO.C,R9*%
X117916807Y-103583542D03*
X123129193Y-117904458D03*
%TD*%
%TO.C,R7*%
X130870806Y-106885543D03*
X136083194Y-121206457D03*
%TD*%
%TO.C,R5*%
X125409807Y-107901543D03*
X130622193Y-122222457D03*
%TD*%
D21*
%TO.C,J30*%
X129159000Y-37973000D03*
%TD*%
D28*
%TO.C,SW1*%
X107436000Y-44232000D03*
X113936000Y-44232000D03*
X107436000Y-48732000D03*
X113936000Y-48732000D03*
%TD*%
D29*
%TO.C,F2*%
X97515674Y-145991248D03*
X104676133Y-148597440D03*
X121383867Y-154678560D03*
X128544326Y-157284752D03*
%TD*%
D21*
%TO.C,J31*%
X126873000Y-37973000D03*
%TD*%
D30*
%TO.C,J10*%
X126082000Y-17941000D03*
X120302000Y-17941000D03*
D31*
X127512000Y-18441000D03*
X118872000Y-18441000D03*
D32*
X127512000Y-14261000D03*
X118872000Y-14261000D03*
%TD*%
D28*
%TO.C,SW2*%
X118436000Y-44232000D03*
X124936000Y-44232000D03*
X118436000Y-48732000D03*
X124936000Y-48732000D03*
%TD*%
D18*
%TO.C,REF\u002A\u002A*%
X94996000Y-53086000D03*
%TD*%
D33*
%TO.C,J3*%
X117475000Y-142240000D03*
%TD*%
D21*
%TO.C,J16*%
X140335000Y-33020000D03*
%TD*%
D28*
%TO.C,SW0*%
X96436000Y-44232000D03*
X102936000Y-44232000D03*
X96436000Y-48732000D03*
X102936000Y-48732000D03*
%TD*%
D33*
%TO.C,J4*%
X101870154Y-131312920D03*
%TD*%
D21*
%TO.C,J34*%
X135255000Y-30480000D03*
%TD*%
%TO.C,J21*%
X140335000Y-40640000D03*
%TD*%
%TO.C,J22*%
X142875000Y-38100000D03*
%TD*%
%TO.C,J32*%
X102870000Y-36830000D03*
%TD*%
D34*
%TO.C,R58*%
X127000000Y-134874000D03*
X127000000Y-150114000D03*
%TD*%
D21*
%TO.C,J33*%
X102870000Y-39370000D03*
%TD*%
%TO.C,J19*%
X140335000Y-30480000D03*
%TD*%
%TO.C,J18*%
X140335000Y-35560000D03*
%TD*%
%TO.C,J24*%
X137795000Y-30480000D03*
%TD*%
%TO.C,J26*%
X98552000Y-22325000D03*
%TD*%
%TO.C,J17*%
X137795000Y-33020000D03*
%TD*%
%TO.C,J27*%
X98552000Y-15775000D03*
%TD*%
D28*
%TO.C,SW4*%
X140436000Y-44232000D03*
X146936000Y-44232000D03*
X140436000Y-48732000D03*
X146936000Y-48732000D03*
%TD*%
D18*
%TO.C,REF\u002A\u002A*%
X149860000Y-145415000D03*
%TD*%
D21*
%TO.C,J23*%
X140335000Y-38100000D03*
%TD*%
D18*
%TO.C,REF\u002A\u002A*%
X157226000Y-53721000D03*
%TD*%
D30*
%TO.C,J9*%
X97697000Y-27971000D03*
X97697000Y-33751000D03*
D35*
X98197000Y-26541000D03*
X98197000Y-35181000D03*
D36*
X94017000Y-26541000D03*
X94017000Y-35181000D03*
%TD*%
D29*
%TO.C,F1*%
X116250351Y-132636065D03*
X113030000Y-125730000D03*
X105515848Y-109615848D03*
X102295497Y-102709783D03*
%TD*%
D33*
%TO.C,J1*%
X152129744Y-131312920D03*
%TD*%
D21*
%TO.C,J35*%
X135255000Y-33020000D03*
%TD*%
D37*
%TO.C,J2*%
X137625183Y-88592991D03*
X137625184Y-94287010D03*
X134778174Y-99218175D03*
X129847009Y-102065183D03*
X124152990Y-102065184D03*
X119221825Y-99218174D03*
X116374817Y-94287009D03*
X116374816Y-88592990D03*
X119221826Y-83661825D03*
X124152991Y-80814817D03*
X129847010Y-80814816D03*
X134778175Y-83661826D03*
X130863703Y-92475276D03*
X123136297Y-90404724D03*
%TD*%
D28*
%TO.C,SW3*%
X129436000Y-44232000D03*
X135936000Y-44232000D03*
X129436000Y-48732000D03*
X135936000Y-48732000D03*
%TD*%
%TO.C,SW8*%
X151436000Y-44232000D03*
X157936000Y-44232000D03*
X151436000Y-48732000D03*
X157936000Y-48732000D03*
%TD*%
D33*
%TO.C,J5*%
X136525000Y-142240000D03*
%TD*%
D19*
%TO.C,R66*%
X138938000Y-79404000D03*
X138938000Y-77880000D03*
%TD*%
D38*
%TO.C,Y1*%
X126332000Y-33912000D03*
X126332000Y-31112000D03*
X128532000Y-31112000D03*
X128532000Y-33912000D03*
%TD*%
D19*
%TO.C,R94*%
X122174000Y-87884000D03*
X123698000Y-87884000D03*
%TD*%
%TO.C,C54*%
X132207000Y-36957000D03*
X133731000Y-36957000D03*
%TD*%
%TO.C,C29*%
X110617000Y-63754000D03*
X109093000Y-63754000D03*
%TD*%
%TO.C,R38*%
X152908000Y-74930000D03*
X152908000Y-76454000D03*
%TD*%
%TO.C,C5*%
X103936800Y-99923600D03*
X103936800Y-98399600D03*
%TD*%
D39*
%TO.C,U33*%
X120592000Y-87260000D03*
X120592000Y-87630000D03*
X120592000Y-88000000D03*
X119692000Y-88000000D03*
X119692000Y-87630000D03*
X119692000Y-87260000D03*
%TD*%
D19*
%TO.C,C55*%
X107061000Y-96266000D03*
X107061000Y-97790000D03*
%TD*%
%TO.C,R41*%
X123571000Y-68961000D03*
X123571000Y-70485000D03*
%TD*%
D40*
%TO.C,U13*%
X135670000Y-77683600D03*
X135670000Y-78333600D03*
X135670000Y-78983600D03*
X133570000Y-78983600D03*
X133570000Y-77683600D03*
%TD*%
D41*
%TO.C,U19*%
X150086000Y-56110000D03*
D42*
X149586000Y-57110000D03*
X149086000Y-57110000D03*
X148586000Y-57110000D03*
X148086000Y-57110000D03*
X147586000Y-57110000D03*
X147086000Y-57110000D03*
D41*
X146586000Y-56110000D03*
X146586000Y-55610000D03*
D42*
X147086000Y-54610000D03*
X147586000Y-54610000D03*
X148086000Y-54610000D03*
X148586000Y-54610000D03*
X149086000Y-54610000D03*
X149586000Y-54610000D03*
D41*
X150086000Y-55610000D03*
D43*
X148336000Y-55860000D03*
%TD*%
D44*
%TO.C,U27*%
X122240000Y-16884000D03*
X123190000Y-16884000D03*
X124140000Y-16884000D03*
X124140000Y-19184000D03*
X122240000Y-19184000D03*
%TD*%
D45*
%TO.C,R57*%
X113030000Y-92075000D03*
X113030000Y-95123000D03*
%TD*%
D20*
%TO.C,Q1*%
X116045000Y-72033000D03*
X114145000Y-72033000D03*
X115095000Y-69633000D03*
%TD*%
D19*
%TO.C,C51*%
X137287000Y-69254050D03*
X138811000Y-69254050D03*
%TD*%
%TO.C,C47*%
X124333000Y-58547000D03*
X125857000Y-58547000D03*
%TD*%
%TO.C,C35*%
X133096000Y-69381050D03*
X134620000Y-69381050D03*
%TD*%
%TO.C,C87*%
X136906000Y-59436000D03*
X135382000Y-59436000D03*
%TD*%
%TO.C,R17*%
X108491000Y-74897000D03*
X108491000Y-73373000D03*
%TD*%
%TO.C,C25*%
X120269000Y-67691000D03*
X120269000Y-69215000D03*
%TD*%
D46*
%TO.C,Q29*%
X149790000Y-30800000D03*
X149790000Y-32700000D03*
X147390000Y-31750000D03*
%TD*%
D19*
%TO.C,C91*%
X129032000Y-66421000D03*
X129032000Y-64897000D03*
%TD*%
%TO.C,R50*%
X108966000Y-60706000D03*
X110490000Y-60706000D03*
%TD*%
D39*
%TO.C,U36*%
X138626000Y-46112000D03*
X138626000Y-46482000D03*
X138626000Y-46852000D03*
X137726000Y-46852000D03*
X137726000Y-46482000D03*
X137726000Y-46112000D03*
%TD*%
D19*
%TO.C,C38*%
X143129000Y-75692000D03*
X143129000Y-74168000D03*
%TD*%
%TO.C,R72*%
X133477000Y-61468000D03*
X133477000Y-62992000D03*
%TD*%
D20*
%TO.C,Q18*%
X102207000Y-66839000D03*
X104107000Y-66839000D03*
X103157000Y-69239000D03*
%TD*%
D47*
%TO.C,U3*%
X152688000Y-63358000D03*
X152688000Y-64008000D03*
X152688000Y-64658000D03*
X150588000Y-64658000D03*
X150588000Y-64008000D03*
X150588000Y-63358000D03*
%TD*%
D19*
%TO.C,C52*%
X130429000Y-58166000D03*
X131953000Y-58166000D03*
%TD*%
%TO.C,R52*%
X149987000Y-37211000D03*
X151511000Y-37211000D03*
%TD*%
%TO.C,C66*%
X113029999Y-34036000D03*
X111506001Y-34036000D03*
%TD*%
D48*
%TO.C,U37*%
X104579000Y-42915000D03*
X104579000Y-42545000D03*
X104579000Y-42175000D03*
X105479000Y-42175000D03*
X105479000Y-42545000D03*
X105479000Y-42915000D03*
%TD*%
D19*
%TO.C,C63*%
X124511000Y-34798000D03*
X124511000Y-36322000D03*
%TD*%
%TO.C,C69*%
X145542000Y-16383000D03*
X145542000Y-17907000D03*
%TD*%
%TO.C,C72*%
X130480000Y-31750000D03*
X130480000Y-33274000D03*
%TD*%
%TO.C,C67*%
X122174000Y-15113000D03*
X123698000Y-15113000D03*
%TD*%
%TO.C,R83*%
X102870000Y-23368000D03*
X101346000Y-23368000D03*
%TD*%
D46*
%TO.C,Q22*%
X121596000Y-72837000D03*
X121596000Y-74737000D03*
X119196000Y-73787000D03*
%TD*%
D19*
%TO.C,C17*%
X150876000Y-62103000D03*
X152400000Y-62103000D03*
%TD*%
D49*
%TO.C,R22*%
X118836908Y-115456239D03*
D50*
X121701092Y-114413761D03*
%TD*%
D19*
%TO.C,C32*%
X153035000Y-31115000D03*
X153035000Y-32639000D03*
%TD*%
D51*
%TO.C,D6*%
X135255000Y-151257000D03*
X139065000Y-151257000D03*
%TD*%
%TO.C,D8*%
X100838000Y-21082000D03*
X100838000Y-17272000D03*
%TD*%
D19*
%TO.C,R91*%
X118745000Y-21971000D03*
X120269000Y-21971000D03*
%TD*%
%TO.C,C77*%
X106807000Y-87757000D03*
X108331000Y-87757000D03*
%TD*%
%TO.C,C42*%
X123952000Y-52578000D03*
X125476000Y-52578000D03*
%TD*%
%TO.C,C84*%
X130175000Y-64135000D03*
X131699000Y-64135000D03*
%TD*%
%TO.C,R82*%
X102997000Y-21844000D03*
X102997000Y-20320000D03*
%TD*%
%TO.C,R107*%
X130683000Y-65278000D03*
X132207000Y-65278000D03*
%TD*%
D46*
%TO.C,Q25*%
X118561000Y-62164000D03*
X118561000Y-60264000D03*
X120961000Y-61214000D03*
%TD*%
D19*
%TO.C,C79*%
X105232200Y-19024600D03*
X105232200Y-20548600D03*
%TD*%
%TO.C,R96*%
X154940000Y-43942000D03*
X153416000Y-43942000D03*
%TD*%
D52*
%TO.C,C2*%
X154940000Y-89662000D03*
X154940000Y-86614000D03*
%TD*%
D19*
%TO.C,R6*%
X116873000Y-73373000D03*
X116873000Y-74897000D03*
%TD*%
%TO.C,R13*%
X114079000Y-65626000D03*
X112555000Y-65626000D03*
%TD*%
%TO.C,C88*%
X138811000Y-80899000D03*
X137287000Y-80899000D03*
%TD*%
D53*
%TO.C,R56*%
X117450548Y-91349391D03*
D54*
X119785452Y-93308609D03*
%TD*%
D19*
%TO.C,R43*%
X124841000Y-66548000D03*
X124841000Y-68072000D03*
%TD*%
%TO.C,C23*%
X114173000Y-84582000D03*
X114173000Y-86106000D03*
%TD*%
%TO.C,R59*%
X146050000Y-66167000D03*
X147574000Y-66167000D03*
%TD*%
%TO.C,R101*%
X123825000Y-46482000D03*
X122301000Y-46482000D03*
%TD*%
%TO.C,R85*%
X127762000Y-20701000D03*
X126238000Y-20701000D03*
%TD*%
%TO.C,R48*%
X109093000Y-62357000D03*
X110617000Y-62357000D03*
%TD*%
%TO.C,R15*%
X113444000Y-73373000D03*
X113444000Y-74897000D03*
%TD*%
%TO.C,R69*%
X118364000Y-89154000D03*
X119888000Y-89154000D03*
%TD*%
%TO.C,C21*%
X118999000Y-70485000D03*
X118999000Y-72009000D03*
%TD*%
%TO.C,C12*%
X155702000Y-67056000D03*
X154178000Y-67056000D03*
%TD*%
%TO.C,R109*%
X105410000Y-98704400D03*
X105410000Y-100228400D03*
%TD*%
%TO.C,R34*%
X101633000Y-74897000D03*
X101633000Y-73373000D03*
%TD*%
%TO.C,C53*%
X134747000Y-61468000D03*
X134747000Y-62992000D03*
%TD*%
%TO.C,C39*%
X141605000Y-75692000D03*
X141605000Y-74168000D03*
%TD*%
D51*
%TO.C,D5*%
X110617000Y-112268000D03*
X106807000Y-112268000D03*
%TD*%
D19*
%TO.C,C83*%
X151384000Y-54610000D03*
X151384000Y-53086000D03*
%TD*%
%TO.C,C24*%
X109855000Y-97028000D03*
X108331000Y-97028000D03*
%TD*%
D20*
%TO.C,Q8*%
X111445000Y-98622000D03*
X113345000Y-98622000D03*
X112395000Y-101022000D03*
%TD*%
D55*
%TO.C,U26*%
X143024000Y-21509500D03*
X142624000Y-21509500D03*
X142224000Y-21509500D03*
X141824000Y-21509500D03*
X141424000Y-21509500D03*
X141024000Y-21509500D03*
X140624000Y-21509500D03*
X140224000Y-21509500D03*
X139824000Y-21509500D03*
X139424000Y-21509500D03*
X139024000Y-21509500D03*
X138624000Y-21509500D03*
X138224000Y-21509500D03*
X137824000Y-21509500D03*
D56*
X136986500Y-20672000D03*
X136986500Y-20272000D03*
X136986500Y-19872000D03*
X136986500Y-19472000D03*
X136986500Y-19072000D03*
X136986500Y-18672000D03*
X136986500Y-18272000D03*
X136986500Y-17872000D03*
X136986500Y-17472000D03*
X136986500Y-17072000D03*
X136986500Y-16672000D03*
X136986500Y-16272000D03*
X136986500Y-15872000D03*
X136986500Y-15472000D03*
D55*
X137824000Y-14634500D03*
X138224000Y-14634500D03*
X138624000Y-14634500D03*
X139024000Y-14634500D03*
X139424000Y-14634500D03*
X139824000Y-14634500D03*
X140224000Y-14634500D03*
X140624000Y-14634500D03*
X141024000Y-14634500D03*
X141424000Y-14634500D03*
X141824000Y-14634500D03*
X142224000Y-14634500D03*
X142624000Y-14634500D03*
X143024000Y-14634500D03*
D56*
X143861500Y-15472000D03*
X143861500Y-15872000D03*
X143861500Y-16272000D03*
X143861500Y-16672000D03*
X143861500Y-17072000D03*
X143861500Y-17472000D03*
X143861500Y-17872000D03*
X143861500Y-18272000D03*
X143861500Y-18672000D03*
X143861500Y-19072000D03*
X143861500Y-19472000D03*
X143861500Y-19872000D03*
X143861500Y-20272000D03*
X143861500Y-20672000D03*
D57*
X140424000Y-18072000D03*
%TD*%
D19*
%TO.C,C82*%
X129032000Y-85471000D03*
X129032000Y-83947000D03*
%TD*%
%TO.C,C34*%
X133096000Y-72810050D03*
X134620000Y-72810050D03*
%TD*%
D40*
%TO.C,U16*%
X132114000Y-61678000D03*
X132114000Y-62328000D03*
X132114000Y-62978000D03*
X130014000Y-62978000D03*
X130014000Y-61678000D03*
%TD*%
D19*
%TO.C,C31*%
X145923000Y-31115000D03*
X145923000Y-29591000D03*
%TD*%
%TO.C,R81*%
X157226000Y-35560000D03*
X155702000Y-35560000D03*
%TD*%
D58*
%TO.C,U6*%
X112887780Y-86521000D03*
X112237780Y-86521000D03*
X111587780Y-86521000D03*
X111587780Y-84421000D03*
X112887780Y-84421000D03*
%TD*%
D20*
%TO.C,Q21*%
X108773000Y-85909000D03*
X106873000Y-85909000D03*
X107823000Y-83509000D03*
%TD*%
D45*
%TO.C,R18*%
X116840000Y-118364000D03*
X116840000Y-115316000D03*
%TD*%
D19*
%TO.C,C7*%
X155702000Y-60706000D03*
X154178000Y-60706000D03*
%TD*%
%TO.C,C36*%
X133096000Y-75184000D03*
X134620000Y-75184000D03*
%TD*%
D41*
%TO.C,U20*%
X112625000Y-40497000D03*
D42*
X112125000Y-41497000D03*
X111625000Y-41497000D03*
X111125000Y-41497000D03*
X110625000Y-41497000D03*
X110125000Y-41497000D03*
X109625000Y-41497000D03*
D41*
X109125000Y-40497000D03*
X109125000Y-39997000D03*
D42*
X109625000Y-38997000D03*
X110125000Y-38997000D03*
X110625000Y-38997000D03*
X111125000Y-38997000D03*
X111625000Y-38997000D03*
X112125000Y-38997000D03*
D41*
X112625000Y-39997000D03*
D43*
X110875000Y-40247000D03*
%TD*%
D19*
%TO.C,C71*%
X126670000Y-35941000D03*
X128194000Y-35941000D03*
%TD*%
%TO.C,R105*%
X149733000Y-40386000D03*
X149733000Y-41910000D03*
%TD*%
D59*
%TO.C,U30*%
X130440000Y-82862000D03*
X130810000Y-82862000D03*
X131180000Y-82862000D03*
X131180000Y-83762000D03*
X130810000Y-83762000D03*
X130440000Y-83762000D03*
%TD*%
D19*
%TO.C,R104*%
X148209000Y-40386001D03*
X148209000Y-41909999D03*
%TD*%
%TO.C,R98*%
X116205000Y-43942000D03*
X116205000Y-42418000D03*
%TD*%
D46*
%TO.C,U21*%
X102393600Y-13629600D03*
X102393600Y-15529600D03*
X99993600Y-14579600D03*
%TD*%
D60*
%TO.C,U23*%
X105852000Y-16891000D03*
D61*
X108252000Y-16891000D03*
D60*
X105852000Y-15621000D03*
D61*
X108252000Y-15621000D03*
D60*
X105852000Y-14351000D03*
D61*
X108252000Y-14351000D03*
D60*
X105852000Y-13081000D03*
D61*
X108252000Y-13081000D03*
X114252000Y-13081000D03*
D60*
X116652000Y-13081000D03*
D61*
X114252000Y-14351000D03*
D60*
X116652000Y-14351000D03*
D61*
X114252000Y-15621000D03*
D60*
X116652000Y-15621000D03*
D61*
X114252000Y-16891000D03*
D60*
X116652000Y-16891000D03*
%TD*%
D20*
%TO.C,Q9*%
X103566000Y-96704001D03*
X101666000Y-96704001D03*
X102616000Y-94304000D03*
%TD*%
D19*
%TO.C,C8*%
X155702000Y-59436000D03*
X154178000Y-59436000D03*
%TD*%
D46*
%TO.C,Q37*%
X94354800Y-23429000D03*
X94354800Y-21529000D03*
X96754800Y-22479000D03*
%TD*%
D62*
%TO.C,Y2*%
X133053000Y-16888000D03*
X133053000Y-19688000D03*
X130853000Y-19688000D03*
X130853000Y-16888000D03*
%TD*%
D59*
%TO.C,U32*%
X121296000Y-83878000D03*
X121666000Y-83878000D03*
X122036000Y-83878000D03*
X122036000Y-84778000D03*
X121666000Y-84778000D03*
X121296000Y-84778000D03*
%TD*%
D20*
%TO.C,Q3*%
X112616000Y-72033000D03*
X110716000Y-72033000D03*
X111666000Y-69633000D03*
%TD*%
D19*
%TO.C,C46*%
X132125000Y-77171000D03*
X132125000Y-78695000D03*
%TD*%
D20*
%TO.C,Q5*%
X109187000Y-72033000D03*
X107287000Y-72033000D03*
X108237000Y-69633000D03*
%TD*%
D63*
%TO.C,U17*%
X140583000Y-66596050D03*
D64*
X140183000Y-66596050D03*
X139783000Y-66596050D03*
X139383000Y-66596050D03*
D65*
X138983000Y-66596050D03*
D66*
X138333000Y-65946050D03*
D67*
X138333000Y-65546050D03*
X138333000Y-65146050D03*
X138333000Y-64746050D03*
D68*
X138333000Y-64346050D03*
D69*
X138983000Y-63696050D03*
D64*
X139383000Y-63696050D03*
X139783000Y-63696050D03*
X140183000Y-63696050D03*
D70*
X140583000Y-63696050D03*
D71*
X141233000Y-64346050D03*
D67*
X141233000Y-64746050D03*
X141233000Y-65146050D03*
X141233000Y-65546050D03*
D72*
X141233000Y-65946050D03*
D73*
X139783000Y-65146050D03*
%TD*%
D19*
%TO.C,R47*%
X116967000Y-58928000D03*
X118491000Y-58928000D03*
%TD*%
%TO.C,R14*%
X96393000Y-25069800D03*
X94869000Y-25069800D03*
%TD*%
%TO.C,R63*%
X136652000Y-67919600D03*
X135128000Y-67919600D03*
%TD*%
%TO.C,C44*%
X130556000Y-53086000D03*
X129032000Y-53086000D03*
%TD*%
D20*
%TO.C,Q4*%
X112494000Y-66839000D03*
X114394000Y-66839000D03*
X113444000Y-69239000D03*
%TD*%
D19*
%TO.C,C64*%
X123241000Y-34798000D03*
X123241000Y-36322000D03*
%TD*%
D39*
%TO.C,U34*%
X116655000Y-46112000D03*
X116655000Y-46482000D03*
X116655000Y-46852000D03*
X115755000Y-46852000D03*
X115755000Y-46482000D03*
X115755000Y-46112000D03*
%TD*%
D74*
%TO.C,D4*%
X107237962Y-106602962D03*
X109932038Y-109297038D03*
%TD*%
D19*
%TO.C,R60*%
X134620000Y-71667050D03*
X133096000Y-71667050D03*
%TD*%
%TO.C,R20*%
X110650000Y-65626000D03*
X109126000Y-65626000D03*
%TD*%
%TO.C,C14*%
X155702000Y-70866000D03*
X154178000Y-70866000D03*
%TD*%
%TO.C,C80*%
X108077000Y-19939000D03*
X109601000Y-19939000D03*
%TD*%
D20*
%TO.C,Q24*%
X127188000Y-72447000D03*
X125288000Y-72447000D03*
X126238000Y-70047000D03*
%TD*%
D19*
%TO.C,C90*%
X128397000Y-61722000D03*
X128397000Y-63246000D03*
%TD*%
%TO.C,C59*%
X142875000Y-65405000D03*
X142875000Y-63881000D03*
%TD*%
%TO.C,C56*%
X100457000Y-80518000D03*
X100457000Y-82042000D03*
%TD*%
D75*
%TO.C,Q23*%
X102873720Y-86437223D03*
X104217223Y-85093720D03*
X105242528Y-87462528D03*
%TD*%
D19*
%TO.C,R68*%
X134747000Y-81280000D03*
X133223000Y-81280000D03*
%TD*%
D20*
%TO.C,Q13*%
X146238000Y-80194000D03*
X144338000Y-80194000D03*
X145288000Y-77794000D03*
%TD*%
D19*
%TO.C,R84*%
X126238000Y-21971000D03*
X127762000Y-21971000D03*
%TD*%
D76*
%TO.C,U15*%
X135135000Y-38547000D03*
X135135000Y-39497000D03*
X135135000Y-40447000D03*
X132835000Y-40447000D03*
X132835000Y-38547000D03*
%TD*%
D19*
%TO.C,R32*%
X155702000Y-73533000D03*
X154178000Y-73533000D03*
%TD*%
%TO.C,C78*%
X135255000Y-17018000D03*
X135255000Y-15494000D03*
%TD*%
%TO.C,R78*%
X102362000Y-30353000D03*
X103886000Y-30353000D03*
%TD*%
%TO.C,R49*%
X112776000Y-62230000D03*
X114300000Y-62230000D03*
%TD*%
D46*
%TO.C,Q20*%
X124771000Y-63185000D03*
X124771000Y-65085000D03*
X122371000Y-64135000D03*
%TD*%
D52*
%TO.C,R19*%
X151638000Y-86614000D03*
X151638000Y-89662000D03*
%TD*%
D19*
%TO.C,R75*%
X130683000Y-68072000D03*
X130683000Y-66548000D03*
%TD*%
%TO.C,R39*%
X115316000Y-77597000D03*
X115316000Y-79121000D03*
%TD*%
%TO.C,R51*%
X107188000Y-62230000D03*
X107188000Y-60706000D03*
%TD*%
%TO.C,C62*%
X113411000Y-37211001D03*
X113411000Y-38734999D03*
%TD*%
%TO.C,R24*%
X110015000Y-73373000D03*
X110015000Y-74897000D03*
%TD*%
D20*
%TO.C,Q7*%
X107757000Y-103054000D03*
X105857000Y-103054000D03*
X106807000Y-100654000D03*
%TD*%
D46*
%TO.C,Q27*%
X151949000Y-33721000D03*
X151949000Y-35621000D03*
X149549000Y-34671000D03*
%TD*%
D19*
%TO.C,C70*%
X156972000Y-32258000D03*
X156972000Y-33782000D03*
%TD*%
D20*
%TO.C,Q2*%
X115923000Y-66839000D03*
X117823000Y-66839000D03*
X116873000Y-69239000D03*
%TD*%
D19*
%TO.C,C19*%
X150876000Y-69723000D03*
X152400000Y-69723000D03*
%TD*%
%TO.C,C58*%
X140462000Y-67945000D03*
X138938000Y-67945000D03*
%TD*%
%TO.C,C33*%
X147574000Y-64857950D03*
X146050000Y-64857950D03*
%TD*%
%TO.C,R92*%
X118745000Y-20574000D03*
X120269000Y-20574000D03*
%TD*%
D20*
%TO.C,Q30*%
X144587000Y-31426000D03*
X142687000Y-31426000D03*
X143637000Y-29026000D03*
%TD*%
D46*
%TO.C,Q26*%
X115640000Y-62265600D03*
X115640000Y-60365600D03*
X118040000Y-61315600D03*
%TD*%
D19*
%TO.C,C15*%
X106807000Y-88900000D03*
X108331000Y-88900000D03*
%TD*%
%TO.C,R70*%
X131953000Y-81914999D03*
X131953000Y-80391001D03*
%TD*%
%TO.C,R55*%
X146304000Y-28321000D03*
X144780000Y-28321000D03*
%TD*%
D47*
%TO.C,U4*%
X152688000Y-67168000D03*
X152688000Y-67818000D03*
X152688000Y-68468000D03*
X150588000Y-68468000D03*
X150588000Y-67818000D03*
X150588000Y-67168000D03*
%TD*%
D19*
%TO.C,C30*%
X141224000Y-27178000D03*
X141224000Y-28702000D03*
%TD*%
D20*
%TO.C,Q11*%
X100650000Y-89097000D03*
X102550000Y-89097000D03*
X101600000Y-91497000D03*
%TD*%
D19*
%TO.C,R88*%
X153162000Y-20447000D03*
X153162000Y-21971000D03*
%TD*%
%TO.C,C10*%
X155702000Y-63246000D03*
X154178000Y-63246000D03*
%TD*%
%TO.C,R45*%
X118618000Y-63754000D03*
X117094000Y-63754000D03*
%TD*%
D77*
%TO.C,R16*%
X155194000Y-91694000D03*
D78*
X152146000Y-91694000D03*
%TD*%
D20*
%TO.C,Q14*%
X105758000Y-72033000D03*
X103858000Y-72033000D03*
X104808000Y-69633000D03*
%TD*%
D40*
%TO.C,U7*%
X108043000Y-100120000D03*
X108043000Y-99470000D03*
X108043000Y-98820000D03*
X110143000Y-98820000D03*
X110143000Y-100120000D03*
%TD*%
D59*
%TO.C,U35*%
X153935000Y-35560000D03*
X154305000Y-35560000D03*
X154675000Y-35560000D03*
X154675000Y-36460000D03*
X154305000Y-36460000D03*
X153935000Y-36460000D03*
%TD*%
D19*
%TO.C,C73*%
X104521000Y-35052000D03*
X104521000Y-36576000D03*
%TD*%
%TO.C,R46*%
X112776000Y-60325000D03*
X114300000Y-60325000D03*
%TD*%
%TO.C,R26*%
X105062000Y-74897000D03*
X105062000Y-73373000D03*
%TD*%
D20*
%TO.C,U9*%
X131765000Y-32382000D03*
X132715000Y-32382000D03*
X133665000Y-32382000D03*
X133665000Y-35182000D03*
X131765000Y-35182000D03*
%TD*%
D79*
%TO.C,D1*%
X118809686Y-119806490D03*
X121728314Y-122255510D03*
%TD*%
D19*
%TO.C,R97*%
X154813000Y-45847000D03*
X153289000Y-45847000D03*
%TD*%
%TO.C,R103*%
X156972000Y-37592000D03*
X155448000Y-37592000D03*
%TD*%
%TO.C,R61*%
X134620000Y-70524050D03*
X133096000Y-70524050D03*
%TD*%
%TO.C,C27*%
X127127000Y-74295000D03*
X127127000Y-75819000D03*
%TD*%
%TO.C,C41*%
X127762000Y-56835000D03*
X127762000Y-55311000D03*
%TD*%
%TO.C,C95*%
X134848600Y-76479400D03*
X133324600Y-76479400D03*
%TD*%
%TO.C,R28*%
X106586000Y-73373000D03*
X106586000Y-74897000D03*
%TD*%
D20*
%TO.C,Q16*%
X113345000Y-79051000D03*
X111445000Y-79051000D03*
X112395000Y-76651000D03*
%TD*%
D47*
%TO.C,U5*%
X152688000Y-70978000D03*
X152688000Y-71628000D03*
X152688000Y-72278000D03*
X150588000Y-72278000D03*
X150588000Y-71628000D03*
X150588000Y-70978000D03*
%TD*%
D19*
%TO.C,C49*%
X133731000Y-55499000D03*
X133731000Y-57023000D03*
%TD*%
%TO.C,R79*%
X103886000Y-31775400D03*
X102362000Y-31775400D03*
%TD*%
%TO.C,C9*%
X155702000Y-64516000D03*
X154178000Y-64516000D03*
%TD*%
%TO.C,R64*%
X144272000Y-74168000D03*
X144272000Y-75692000D03*
%TD*%
%TO.C,R2*%
X117508000Y-65626000D03*
X115984000Y-65626000D03*
%TD*%
D52*
%TO.C,R25*%
X151638000Y-77978000D03*
X151638000Y-81026000D03*
%TD*%
D61*
%TO.C,U1*%
X147907000Y-68834000D03*
X147907000Y-70104000D03*
X147907000Y-71374000D03*
X147907000Y-72644000D03*
X141907000Y-72644000D03*
X141907000Y-71374000D03*
X141907000Y-70104000D03*
X141907000Y-68834000D03*
%TD*%
D19*
%TO.C,C74*%
X132715000Y-14478000D03*
X131191000Y-14478000D03*
%TD*%
D41*
%TO.C,U31*%
X124123000Y-84836000D03*
D42*
X124623000Y-83836000D03*
X125123000Y-83836000D03*
X125623000Y-83836000D03*
X126123000Y-83836000D03*
X126623000Y-83836000D03*
X127123000Y-83836000D03*
D41*
X127623000Y-84836000D03*
X127623000Y-85336000D03*
D42*
X127123000Y-86336000D03*
X126623000Y-86336000D03*
X126123000Y-86336000D03*
X125623000Y-86336000D03*
X125123000Y-86336000D03*
X124623000Y-86336000D03*
D41*
X124123000Y-85336000D03*
D80*
X125873000Y-85086000D03*
%TD*%
D19*
%TO.C,C57*%
X144018000Y-62611000D03*
X142494000Y-62611000D03*
%TD*%
%TO.C,R44*%
X133858000Y-67818000D03*
X133858000Y-66294000D03*
%TD*%
D20*
%TO.C,Q12*%
X146878000Y-76016000D03*
X148778000Y-76016000D03*
X147828000Y-78416000D03*
%TD*%
D19*
%TO.C,R1*%
X115349000Y-74897000D03*
X115349000Y-73373000D03*
%TD*%
%TO.C,R42*%
X122555000Y-61722000D03*
X124079000Y-61722000D03*
%TD*%
D81*
%TO.C,U25*%
X115853000Y-30509500D03*
X116253000Y-30509500D03*
X116653000Y-30509500D03*
X117053000Y-30509500D03*
X117453000Y-30509500D03*
X117853000Y-30509500D03*
X118253000Y-30509500D03*
X118653000Y-30509500D03*
X119053000Y-30509500D03*
X119453000Y-30509500D03*
X119853000Y-30509500D03*
X120253000Y-30509500D03*
X120653000Y-30509500D03*
X121053000Y-30509500D03*
D82*
X121890500Y-31347000D03*
X121890500Y-31747000D03*
X121890500Y-32147000D03*
X121890500Y-32547000D03*
X121890500Y-32947000D03*
X121890500Y-33347000D03*
X121890500Y-33747000D03*
X121890500Y-34147000D03*
X121890500Y-34547000D03*
X121890500Y-34947000D03*
X121890500Y-35347000D03*
X121890500Y-35747000D03*
X121890500Y-36147000D03*
X121890500Y-36547000D03*
D81*
X121053000Y-37384500D03*
X120653000Y-37384500D03*
X120253000Y-37384500D03*
X119853000Y-37384500D03*
X119453000Y-37384500D03*
X119053000Y-37384500D03*
X118653000Y-37384500D03*
X118253000Y-37384500D03*
X117853000Y-37384500D03*
X117453000Y-37384500D03*
X117053000Y-37384500D03*
X116653000Y-37384500D03*
X116253000Y-37384500D03*
X115853000Y-37384500D03*
D82*
X115015500Y-36547000D03*
X115015500Y-36147000D03*
X115015500Y-35747000D03*
X115015500Y-35347000D03*
X115015500Y-34947000D03*
X115015500Y-34547000D03*
X115015500Y-34147000D03*
X115015500Y-33747000D03*
X115015500Y-33347000D03*
X115015500Y-32947000D03*
X115015500Y-32547000D03*
X115015500Y-32147000D03*
X115015500Y-31747000D03*
X115015500Y-31347000D03*
D57*
X118453000Y-33947000D03*
%TD*%
D19*
%TO.C,C76*%
X153162000Y-14986000D03*
X153162000Y-16510000D03*
%TD*%
D83*
%TO.C,D2*%
X121920000Y-71394000D03*
X121920000Y-67544000D03*
%TD*%
D52*
%TO.C,R23*%
X151638000Y-82296000D03*
X151638000Y-85344000D03*
%TD*%
D19*
%TO.C,R35*%
X103919000Y-65626000D03*
X102395000Y-65626000D03*
%TD*%
%TO.C,C45*%
X142748000Y-80391000D03*
X141224000Y-80391000D03*
%TD*%
D52*
%TO.C,C4*%
X154940000Y-81026000D03*
X154940000Y-77978000D03*
%TD*%
D51*
%TO.C,D7*%
X139065000Y-153289000D03*
X135255000Y-153289000D03*
%TD*%
D19*
%TO.C,R54*%
X151257000Y-32131000D03*
X151257000Y-30607000D03*
%TD*%
D46*
%TO.C,U10*%
X129283000Y-56449000D03*
X129283000Y-55499000D03*
X129283000Y-54549000D03*
X132083000Y-54549000D03*
X132083000Y-56449000D03*
%TD*%
D19*
%TO.C,R77*%
X144653000Y-50419000D03*
X144653000Y-48895000D03*
%TD*%
%TO.C,R53*%
X139954000Y-28702000D03*
X139954000Y-27178000D03*
%TD*%
%TO.C,R40*%
X119126000Y-67691000D03*
X119126000Y-69215000D03*
%TD*%
D42*
%TO.C,U14*%
X138045000Y-70625850D03*
D41*
X139045000Y-71125850D03*
X139045000Y-71625850D03*
X139045000Y-72125850D03*
X139045000Y-72625850D03*
X139045000Y-73125850D03*
X139045000Y-73625850D03*
D42*
X138045000Y-74125850D03*
X137545000Y-74125850D03*
D41*
X136545000Y-73625850D03*
X136545000Y-73125850D03*
X136545000Y-72625850D03*
X136545000Y-72125850D03*
X136545000Y-71625850D03*
X136545000Y-71125850D03*
D42*
X137545000Y-70625850D03*
%TD*%
D19*
%TO.C,R99*%
X113665000Y-46482000D03*
X112141000Y-46482000D03*
%TD*%
%TO.C,C85*%
X136779000Y-61976000D03*
X136779000Y-63500000D03*
%TD*%
%TO.C,C60*%
X117221000Y-17830800D03*
X117221000Y-19354800D03*
%TD*%
%TO.C,R67*%
X137033000Y-77470000D03*
X137033000Y-78994000D03*
%TD*%
%TO.C,C75*%
X131191000Y-21590000D03*
X132715000Y-21590000D03*
%TD*%
%TO.C,C48*%
X136906000Y-37973000D03*
X136906000Y-39497000D03*
%TD*%
%TO.C,R27*%
X107221000Y-65626000D03*
X105697000Y-65626000D03*
%TD*%
D84*
%TO.C,U28*%
X105791000Y-27660500D03*
X107061000Y-27660500D03*
X108331000Y-27660500D03*
X109601000Y-27660500D03*
X109601000Y-34835500D03*
X108331000Y-34835500D03*
X107061000Y-34835500D03*
X105791000Y-34835500D03*
%TD*%
D19*
%TO.C,C40*%
X131445000Y-30480000D03*
X132969000Y-30480000D03*
%TD*%
%TO.C,R87*%
X153162000Y-19304000D03*
X153162000Y-17780000D03*
%TD*%
%TO.C,R106*%
X132207000Y-67945000D03*
X132207000Y-66421000D03*
%TD*%
%TO.C,R37*%
X103157000Y-73373000D03*
X103157000Y-74897000D03*
%TD*%
%TO.C,R31*%
X154178000Y-69596000D03*
X155702000Y-69596000D03*
%TD*%
D46*
%TO.C,Q31*%
X144964000Y-33086000D03*
X144964000Y-34986000D03*
X142564000Y-34036000D03*
%TD*%
D19*
%TO.C,C86*%
X137668000Y-58293000D03*
X136144000Y-58293000D03*
%TD*%
%TO.C,C18*%
X150876000Y-65913000D03*
X152400000Y-65913000D03*
%TD*%
D41*
%TO.C,U18*%
X102009000Y-79760000D03*
D42*
X102509000Y-78760000D03*
X103009000Y-78760000D03*
X103509000Y-78760000D03*
X104009000Y-78760000D03*
X104509000Y-78760000D03*
X105009000Y-78760000D03*
D41*
X105509000Y-79760000D03*
X105509000Y-80260000D03*
D42*
X105009000Y-81260000D03*
X104509000Y-81260000D03*
X104009000Y-81260000D03*
X103509000Y-81260000D03*
X103009000Y-81260000D03*
X102509000Y-81260000D03*
D41*
X102009000Y-80260000D03*
D80*
X103759000Y-80010000D03*
%TD*%
D19*
%TO.C,R33*%
X151638000Y-74930000D03*
X151638000Y-76454000D03*
%TD*%
D85*
%TO.C,R108*%
X140639800Y-70307200D03*
X140639800Y-69392800D03*
%TD*%
D19*
%TO.C,C20*%
X150876000Y-73533000D03*
X152400000Y-73533000D03*
%TD*%
%TO.C,C89*%
X146050000Y-74168000D03*
X147574000Y-74168000D03*
%TD*%
%TO.C,R73*%
X121539000Y-82550000D03*
X121539000Y-81026000D03*
%TD*%
%TO.C,C68*%
X122428000Y-20955000D03*
X123952000Y-20955000D03*
%TD*%
%TO.C,C81*%
X99187000Y-17653000D03*
X99187000Y-19177000D03*
%TD*%
%TO.C,R76*%
X142748000Y-61214000D03*
X141224000Y-61214000D03*
%TD*%
D20*
%TO.C,Q19*%
X109286000Y-80842000D03*
X111186000Y-80842000D03*
X110236000Y-83242000D03*
%TD*%
D19*
%TO.C,R30*%
X154178000Y-65786000D03*
X155702000Y-65786000D03*
%TD*%
D20*
%TO.C,Q15*%
X105636000Y-66839000D03*
X107536000Y-66839000D03*
X106586000Y-69239000D03*
%TD*%
D19*
%TO.C,C28*%
X143383000Y-67310000D03*
X144907000Y-67310000D03*
%TD*%
D44*
%TO.C,U11*%
X124145000Y-54349000D03*
X125095000Y-54349000D03*
X126045000Y-54349000D03*
X126045000Y-56649000D03*
X124145000Y-56649000D03*
%TD*%
D19*
%TO.C,C11*%
X155702000Y-68326000D03*
X154178000Y-68326000D03*
%TD*%
%TO.C,R29*%
X154178000Y-61976000D03*
X155702000Y-61976000D03*
%TD*%
%TO.C,R90*%
X100584000Y-35687000D03*
X100584000Y-34163000D03*
%TD*%
D40*
%TO.C,U12*%
X140301000Y-79292000D03*
X140301000Y-78642000D03*
X140301000Y-77992000D03*
X142401000Y-77992000D03*
X142401000Y-79292000D03*
%TD*%
D19*
%TO.C,R62*%
X134620000Y-73953050D03*
X133096000Y-73953050D03*
%TD*%
%TO.C,R95*%
X153289000Y-47498000D03*
X154813000Y-47498000D03*
%TD*%
%TO.C,C13*%
X155702000Y-72136000D03*
X154178000Y-72136000D03*
%TD*%
D47*
%TO.C,U2*%
X152688000Y-59548000D03*
X152688000Y-60198000D03*
X152688000Y-60848000D03*
X150588000Y-60848000D03*
X150588000Y-60198000D03*
X150588000Y-59548000D03*
%TD*%
D86*
%TO.C,U29*%
X151303500Y-21659500D03*
X150033500Y-21659500D03*
X148763500Y-21659500D03*
X147493500Y-21659500D03*
X147493500Y-14484500D03*
X148763500Y-14484500D03*
X150033500Y-14484500D03*
X151303500Y-14484500D03*
%TD*%
D58*
%TO.C,U8*%
X124572000Y-74134000D03*
X125222000Y-74134000D03*
X125872000Y-74134000D03*
X125872000Y-76234000D03*
X124572000Y-76234000D03*
%TD*%
D19*
%TO.C,C26*%
X123317000Y-75819000D03*
X123317000Y-74295000D03*
%TD*%
%TO.C,R71*%
X130429000Y-59563000D03*
X131953000Y-59563000D03*
%TD*%
%TO.C,R102*%
X106553000Y-42037000D03*
X108077000Y-42037000D03*
%TD*%
%TO.C,C16*%
X155702000Y-74930000D03*
X154178000Y-74930000D03*
%TD*%
%TO.C,R100*%
X138176000Y-44196000D03*
X138176000Y-42672000D03*
%TD*%
%TO.C,R86*%
X135382000Y-20066000D03*
X135382000Y-18542000D03*
%TD*%
D52*
%TO.C,C3*%
X154940000Y-85344000D03*
X154940000Y-82296000D03*
%TD*%
D19*
%TO.C,R74*%
X118872000Y-85852000D03*
X117348000Y-85852000D03*
%TD*%
%TO.C,R89*%
X100711000Y-25650220D03*
X100711000Y-27174220D03*
%TD*%
%TO.C,C22*%
X125349000Y-61722000D03*
X126873000Y-61722000D03*
%TD*%
%TO.C,C43*%
X135001000Y-35306000D03*
X136525000Y-35306000D03*
%TD*%
%TO.C,C37*%
X135128000Y-66675000D03*
X136652000Y-66675000D03*
%TD*%
%TO.C,R11*%
X111920000Y-74897000D03*
X111920000Y-73373000D03*
%TD*%
%TO.C,R80*%
X124511000Y-32131000D03*
X124511000Y-33655000D03*
%TD*%
D20*
%TO.C,Q17*%
X102329000Y-72033000D03*
X100429000Y-72033000D03*
X101379000Y-69633000D03*
%TD*%
D83*
%TO.C,D3*%
X129159000Y-71902000D03*
X129159000Y-68052000D03*
%TD*%
D77*
%TO.C,R21*%
X115443000Y-111886999D03*
D87*
X118491000Y-111887001D03*
%TD*%
D19*
%TO.C,R65*%
X140462000Y-74168000D03*
X140462000Y-75692000D03*
%TD*%
D20*
%TO.C,Q6*%
X109065000Y-66839000D03*
X110965000Y-66839000D03*
X110015000Y-69239000D03*
%TD*%
D19*
%TO.C,C50*%
X138176000Y-37973000D03*
X138176000Y-39497000D03*
%TD*%
%TO.C,C65*%
X145542000Y-15240000D03*
X145542000Y-13716000D03*
%TD*%
D88*
X125222000Y-129032000D03*
X123825000Y-127381000D03*
X114935000Y-117475000D03*
X111506000Y-110363000D03*
D89*
X96139000Y-18465800D03*
X96139000Y-40462200D03*
X155143200Y-40462200D03*
D90*
X133350000Y-65278000D03*
D91*
X112395000Y-96520000D03*
X111252000Y-96139000D03*
D88*
X108458000Y-110617000D03*
X109347000Y-103251000D03*
X110998000Y-113538000D03*
X108839000Y-112903000D03*
D91*
X111506000Y-97282000D03*
D92*
X113893600Y-51358800D03*
D91*
X119126000Y-29210000D03*
D90*
X134239000Y-64389000D03*
D93*
X117414157Y-91313000D02*
X117450548Y-91349391D01*
X115570000Y-91313000D02*
X117414157Y-91313000D01*
X113030000Y-92075000D02*
X114808000Y-92075000D01*
D94*
X139319000Y-128651000D02*
X137795000Y-128651000D01*
X142768528Y-125201472D02*
X139319000Y-128651000D01*
X143581444Y-125201472D02*
X142768528Y-125201472D01*
X143716321Y-125066595D02*
X143581444Y-125201472D01*
D17*
X148107400Y-79756000D02*
X148107400Y-79298800D01*
X145440400Y-81026000D02*
X145745200Y-81330800D01*
X145745200Y-81330800D02*
X146532600Y-81330800D01*
X146532600Y-81330800D02*
X148107400Y-79756000D01*
D93*
X117867939Y-90932000D02*
X119126000Y-90932000D01*
D17*
X156337000Y-76581000D02*
X156337000Y-78105000D01*
X156591000Y-59817000D02*
X156591000Y-76327000D01*
X156972000Y-59436000D02*
X156591000Y-59817000D01*
X156718000Y-58293000D02*
X156972000Y-58547000D01*
X156972000Y-58547000D02*
X156972000Y-59436000D01*
X156591000Y-76327000D02*
X156337000Y-76581000D01*
M02*
